<mxfile host="Electron" modified="2024-02-16T05:51:25.056Z" agent="Mozilla/5.0 (Windows NT 10.0; Win64; x64) AppleWebKit/537.36 (KHTML, like Gecko) draw.io/21.2.8 Chrome/112.0.5615.165 Electron/24.2.0 Safari/537.36" etag="BdP2g1Q4FwbohjzN3myX" version="21.2.8" type="device">
  <diagram name="Page-1" id="2XWkQP5S-hDbL94sL5Vg">
    <mxGraphModel dx="2298" dy="1180" grid="1" gridSize="10" guides="1" tooltips="1" connect="1" arrows="1" fold="1" page="1" pageScale="1" pageWidth="3300" pageHeight="4681" background="#999999" math="0" shadow="0">
      <root>
        <mxCell id="0" />
        <mxCell id="1" parent="0" />
        <mxCell id="APLwThIm-aDqV8bCMrbt-1" value="FileDialog" style="rounded=0;whiteSpace=wrap;html=1;fontSize=25;fillColor=#dae8fc;strokeColor=#6c8ebf;" parent="1" vertex="1">
          <mxGeometry x="1298" y="140" width="650" height="60" as="geometry" />
        </mxCell>
        <mxCell id="0R67ceWjCG0SF3ceFxvD-1" value="" style="shape=image;verticalLabelPosition=bottom;labelBackgroundColor=default;verticalAlign=top;aspect=fixed;imageAspect=0;image=data:image/png,iVBORw0KGgoAAAANSUhEUgAAAo8AAAIJCAYAAADEede+AAAAAXNSR0IArs4c6QAAAARnQU1BAACxjwv8YQUAAAAJcEhZcwAADsMAAA7DAcdvqGQAAKDwSURBVHhe7N0HYBNlAwbgN2lL92R1AAUKSAXKKLOUUVqWggho2XsICKgIiixFpiBDhJ+CZclShoCyZ8veo2xkFaFldFG6R/LfJZcukpIOZt5Hj9x9N3J3uV7efLdkVapWU0Ip/I9MSqE7m2z9pTbhJcdQb7l8Lk0BVsK7tf5ehtewhgzkQ+G2R6+LTHp9K7yWmX2r1tArV6C1k++R353PRLUkmf+oqDuzL6O6U12mtX+VKlWzREVVjswmM0hKr8JLjkF00G8orfI5agHe8TV5tQv69q0fQ/EWfTLciN482ffppBVXUm5ey9rJ95u+XZ/lm7eY6gmr/s38R0WWS4AUZe0ve18Ij+rWHMExZ22j+n9Jzu43RQHmKJ+jvnnrIDevfv0UxNu1bl8HriEyJNm/2Oh5+V5Dr37Et0qOTJVHb946yhoKM1uzdqvbRboCpBQeswfHnLWNmZ1ZA6Uoe1c2ufR6kQKMmn9ZV0AevJZ5fS3yuaQGsoIMZzsgIn1kft2+Qvl+09cyt6/c61k9+Rv55b1lZk9VmyYMqjtU7aIX9RPCY5UsWVFXbWOOWsnnurV54QC65XPUArxjARjKchqKt2jtvmUbArfblyNzl/6Oey0LajBr95XL95ot0Efy6j/PN3E5VX2lYCjShEPpRfNPtuGeC5Du71dR79NzBMesgdLYxASWlhYoYlIERUyLwMjI6KV+E2SdE9LirVo9r35mufUQ0euW+TX7Kr2ed82Xt2hWXwcpyr0cwqTT09ORnJyMlJRUJCQkIC01VShXv2fWoKhuVbeLMg5bq8JjLsHR2toatna2iIx5hsSkFCQJb5Sali4NQPS2Ezf2zD8MNX3iZ85xNHIbV9c4r4s+y0lcT0T0rjExNoaZqQnMTYugmL0tYmKe4llsrJgOVf1fFCBl7u7vZ2RFcSep6RCPZRcrVkwokSM8IhopqWnqHkQGQZ/AkPnHlN2LxtU1Xk5Zp6PvOHmlz3IS1xMRvauKmBjDqZgDjI1kePz4iVSqyYvq7x51q9QuvMgzd4ma4Ci+KmFjbS20yREa/oTBkQyQ+o8kd+IfjLZQ8aJx9Qki+gxTGPRZTuJ6IqJ3lZjxQsMfIy1dfbRZfSFMZibM+FddoHqRa9o0A4mvYnWmeKharHEkotzoChWFHTbUf7QvB4MREZGhC4+Igp2trSoDZs2E2r5/hPAo9JQ61AMBllaWqnMcWeNIhk0MVS9qcpPbcM//Mb6YOE7OhoiIqODEzBcR8xQWlhaqbk0mzAiSmR1CeNQUZhlKvKpavDiGiAqLrgCpq8kteGalGb6g9HkvQ8f1Q0TvtsTkFFUG1IREzSFszdeM6kUoU5/zKBWKBWKreDse8apqInoTvMrQwhBJRGSokpJTYWpqmhESVYSXrN3iv7L33quc0aluUaKsa1lcvvWfqlQXGytLmBgbSV36E2/zExsXL3URGRr1X1vudIW33MZ9GYFPn3k1RFwvRPTuquLmiruhd4U2WcYV18+9VhLCo9iqOWwtvpYt64ort+6runWZM2Ma3CpUkLq009xM8sHDiIwAGx8biRHfjIZcnvfgSUSvCwPT87hOiOjd875bGdy9G5olMKqzXNbujKut1S/67wztbG1QpXLFXJv336ugapo3qY8WTdVN8WJF8/Q+RJRf4t+Zpiko9c6DiOhtNWnCONy7cRkPbl3T2oj9xGHeNEf37YRXvbpS1/PEfkf27pC6CovmaHSWbKj5KhG61TWPQovqK0YaQJ+ax98DF6JUKTdsPvQvZHJhQmJjJDYKfFC9AhxL2iJOOjxtaWmJjUfuqNrLWSege5/+MDIyVnXndOnMUdjb2UldwLLfV2PcxClSV8HUq+OJv/5YKXWpnT13AW0/6SJ1QdiArrzwPcV57DdoGE6cOiOVFMzk78eiT89uUpdaYS43GSrNX7qoMMJf1umRGtcJ0dtCDIfNP2yH8EePpZLsHOztcHDPDpSpVEUqeTOI4XD+3JkY+uUoHD1xUipVy61ffqlrHjWHrTW1jkK7ukX1qq55zAdxZJnMCHeexuHus2cITYjFf8lPcT81BqmpCiGICo30n4ZREf0ea9ihcw+4uL2vagoSoMSwKAa9rKJjYjKmLTb2wsaSdZiCvmd+iSE263yJYfKfDWulvkRvgsIIoEREr4eRkZEqOMbGxmpt7obeUw3zphFDoRgOxZCYtQbyZQRHfeU7PKYr1KGweFFTyIqk4WlaLJ4kReJRovrRNrIcP8jN7JNgUSxB6npzePu2Vj3TUaz9e5OIAbJWzeqqAEyUP6qfeFJTWAp7ekRE9CI5A+TrDI6ifIdHTTa8+ug+7sSEIyYtGol4hhRZnKpcKX2/SBWdsLSLg4WVul9+iOFOPKSsafr16q4q19QuLlu0IFs/zSFq8RC4WCb21+Xfm7fh4uysahenpQlsh/ftyJhmzhpMDXFYzTA530ecD025OC2x0cy3Pu7cDUXV991V7VmXP+u8iO1Z+4nzo5nvnPOsz/KQIRH/ijVNXjFAEhG9SlkD5OsMjqICHbYWJQph0cQ8FSZmqTA2TYGJ0KgI30ea4CiqXLw0KtiVl7pyJ4a+rGFIDFziYVzNIV3xsPaPE8ZkhDzNOZJiP/FcQXFY8XxEcTjNYeo+n32uGkabB2FhKFbUQerKJNZKat7zzp1QrbWT4rxO+HFqxnB1atfMGE6cR00/cb7KlXVVlesrOjpGNY64/E0be2e8x+a/t2ULqZp+u/ceUM2P+F5id9YaVfEQuDg9zTROnT6nCpNERER5pe2CE20NvZuE8Kg5K1GqfRAvmslDRYQqNAqNianYZAmPQm7MOpkK9m6qRh9Zz3kUQ6C3VwNVMNIQy1QXunzQStUtBkRNOPxn+07Y2dmq2vUl1jpGREZJXZmy1hyKh5BzEvuLtYNLVqySSqAKdtWrVX2un/gqdueFeD6mOI64/GKI1MyLGI4rVsgM4l+PVl8ddvjosWzv+W+WGtVy5Vwx+aefVe0icX3lNcwSZcfaR/U6yNkQvftc3Crr1VDhyXqoOush7EInhjdVgBPzoCbJSVlRusA63zWPGurgqA6NRcTXIurwqL5yO/NNU1JTkZiYJHUXjryGMV3E2kIxeGUlhr+vhg8RNn51iBXDqr40QVSs6csvsVZVDHeaICiGZ828iI1YK1pQYugmQ1YYgYeB6XmFsV6JiDLlPMcx5zmQr1r+w6OwX0xOTkS9Ym6obV8RtWwqoYalOzzMq6jK1YOod55ijlQoFEgXmvwQg10LPx+pSx2sxJrArDV+2og1lFlv+6ONeO6feEha27TEw74a2moexXE0h5U1Pv7oQ9X8XrpyNdsFL+Iw+tb0ieNoDj+Lci5/fojLOO7bkVIXVIe9xTKiwsGgpB1DJNGbIj09XXU7Hl0cS5ZUDfOm0XVxzOsMkPkOj2IOdH+vND7z8cNnTVpgQKPW6N/oI/Rr2A6V3ysFCwtLlChRHA5FHWBSxEQVHuXy/O1ExZAmBinNYVsxWImHtvUh1k6K42jOEdRcQKNpxMPMWe/zqCG+p3j4WzOcrppHzfmXWacnjisGV3GeNedvioeac6spFYOmZhqa5dPcMkicnljzqOkvNtrOv8yNuIziYXDN+OJhb23LTURE9C5asWqt6j6O2s7NFJuTh/arhnmTiPdXnDll4nPBUUMTIH+e+qNU8mrIKr33nnRvcKX60LbwT9myZXHldu43Cf9y2GDUrP58bZyGXC5XNWKKz/pEmZCQi5g55xfIddwk/F0m1nIW5s3Fid48mX/rlBPXDRHlnRggs+aol+398tJNwmXi/+I/wr+quj/peLLYnd/wKI6kVAjBUOrWl/jGMrmRamUYErHmUzy3sqqnl1RC9C5jUNIf1xURvTleanikFxNrGrOecyle6EJkOBiKCh/XKRG9XPqExwJfbU26ibWMWa+QJiIqGNWum4jotWJ4JCIiIiK9MTwS0UvAw6tERO8qhkciIiIi0ptcXUGQebEM6wuIqGC4FyEieptJ0TBzby61aLpZ80hEhYwXdRARvcsYHonoJWCAJCJ6VzE8EtFLwgBJRPQuklWq9J7qTMes5zyWK1sWe/bsVg1ARERERIahefMWuHP3bsYNwcUnAmra1S+8STgRERER5QHDIxERERHpjeGRiIiIiPTG8EhEREREemN4JCIiIiK9MTwSERERkd4YHomIiIhIb3LVcwqlf9TPLFTd8FHVRkRERESGQ5UGpft+q/Jg1nbVi5I1j0RERESkP4ZHIiIiItIbwyMRERER6Y3hkYiIiIj0xvBIRERERHpjeCQiIiIivTE8EhEREZHeGB6JiIiISG8Mj0RERESkN4ZHIiIiItKbEB6lx85kPnVG00pEREREBkaTAzMzYWY4FF9Y80hEREREemN4JCIiIiK9MTwSERERkd4YHomIiIhIbwyPRERERKQ3hkciIiIi0hvDIxERERHpjeGRiIiIiPTG8EhEREREepNVrFRJKd5BXLyNuPpFiXLlymLvnj2qAQrLf//9h3379uHZs2dSCRERERHlh7W1NXx9fVG6dGmppHD4NW+OO3fuQiaTqbrFV7FV+FfsUJdVqFhJSI2aRxSKr0J4LFsOe/cWbnjs27cvDh8+DIVCIZUQERERUX7I5XLUq1cPS5YsQZEiRaTSgvPzE8Lj3TsZYVGMi6ogqQqRrzg8uru7IzExUVWzSURERET5JwY5c3Nz7Ny5E66urlJpwekTHl/pOY8MjkREREQFp8lUT58+Vb2+SrxghoiIiOgtlZqaKrW9OgyPRERERKQ3hkciIiIi0hvDIxERERHpjeGRiIiIiPTG8EhEREREemN4JCIiIiK9MTwS0RtLbmIBaxsrmJuIu6qSqOvfG3379kHLSoX3NIV8k8lhZGSUrZGr759LRPROY3gkojeOeYWP8eP6Y7h8/QouXbyMqzcuY+eI6qj66Xf4fnxXVDNOl4Z8XcxRf8J+XLl6FVeuXFE1126cweL2JaT++SGDsU0Z1KzqAhOphIjoTZQtPKofUahqJSJ6LYq8NxC/b/kFveo6QfbkCo4dPIJztyKRLPRTPyhLbHn9VXwyE1OYmcoReycE58+fx9nTV/E4Nf+/x4u2+R9OXTyIhd3KMzwS0eslZMGscVDdLhaq21jzSERvDpkzOo4bjrpWabizpjcaNvgAnXt0RXu/xvh0/r9QSIOZV2iD0fNXYtXiCfjkPQup1AxlfAdh6qKVWLsmEDOHf4AKlpqQqbufWanGGPDjQqxYvQqBs7/DRxXE6GaO8q2+xOxla7B68VQM8CoJY9XQOaXi35VfoFOnTkLTBWP+eSiU6XqvUmg1chImT/4e/dq1w8h5v2P1ksnoXs0a9t6D8GXr0sJ7yGBU8WOMmdQP9axUb0BE9MaRVahYSSkmSTFLqp6TKDTlypXD3r171EMUEnd3dyQkJEhdRERaFP0YvwX9ghYmxzDetzN+fyCVq5RGn/X78IPnU4Q9NIWlnSVsLY2RfnsROracA+Xn6/DHlx4wTXmGp8lmsLM2Qcq1RejWYQ5SB+ro1+8semwOQDvbJ7ga8p+QXY2ws39X7Gm2ButHeiDt9jncNnVHDaco/NHnA3wbpHmGrDkaTN6PP3rY4dTicVgRkgKlIgX3Tx8Guv6hYz5WouoKYf5rReFuqCnsStqo5h///Y5+P1lh2tyPUcJYDmVqIhLDN2NIq9EIipfejohICwsLC6xatQqenp5SScH5+TXHnTt3VEd4ZGIjFqrahRexS2hhzSMRvTFkVsVQ1ExoSXiMR3HqsmzEvZgRcGpiU1Sv0xd/hCth5FgF7uUao28PD5jHH8UPzWugRrXG+CYoFqaV/dG3zYe6+7VwRxk7GdIjzmHDrC/RsfGnWBDuhX69q8P07koM6zEMw0cswSVFKTRvXw+26rnIwgJ1Bs7G/PnzsWDe56jv2Ej3e/nYCcMLC2Akx4XpfqhRuztW/qeArIQ7XM+PwAcjdkOMpo//+gx1GjE4EtGbi+GRiN4YyrgniEgUWmwro1oZLWf+iYdIFDH470EslMkReBKnEPZixjCxLYMyNkB6+Dmcu58mDPcY169FCINbwbFsed39jA/ht823keLUEuPXHsL5gwvwSRU3lLOVwci1B5YePIQDaz5HFSMlTGxsIOba7BJw4tcB6NatG7r2nIJ9ylzmw8lSiI7CAiie4t79p1AmReBRrHr+jYVAnJYmXQQkHQkiInpTMTwS0Zsj8ii2HY8GjN/DgLlT0bFKCVhbWKFYeW90bVNJ5w5L+ewBHjwDjByrwcPJGJCVRBVhXBlice/f27r7PXqCY2P9UKt+O4xc9y/g7Is+TeR4kiBkvLA/0K9+LdT29IRnHS80/2oLHkvvl1Vq2EUcPnwYR46cwL//3df9XveEwCuNkxsjY2PINYeKiIjeQAyPRPQGeYKtEydiW3gazCr4Y/b2U7h09TLOHFiJ/lVyiVNPg7D0j6tIsmqMSfvP4/zFYExtZIX4c8sRuGO7zn5L73yMVacPY+PCHzCwWRmYIAa3LuzE6m33oHDpisA9W7F27Xps27cMPUrrUSMYnct8HBRSZS7iH/yHyHSgePv/4fj+KWhiKfUgInrDGDkULfqD1J7B3t4ePXv2lLoKx4IFC5Camip1ERFpp3x2DdvX/I1zUcIOShGPqLBbuHBwE9asP4tIM2M8vXkL/148hsuR1nB0kePJ9du4eu4gDm3fhB3XE2FhboLUqBs4tGoqvprwB24kpiL8iPZ+t+TmsLKwg521MZ7dPIy1U0Zi+u5Q3AragoP3ZbCyMYNR4kOc/2c11h+6hogkaSZhBAfHkkgLu46bV07h+G3NCZq63+tGohVKljZH9I3buH31GC49toJjaWNEXL+Df0OO4crV0zh23xTFLdLw5NYZBB84h4fcZRJRLkxMTNChQwc4OztLJQX3++8rERMTg9wumOHV1kRERERvIV5tTURERERvPIZHIiIiItKbEB41J4GrDlyr2oiIiIjIMGXkwoxbh4ntmnLWPBIRERFRHjA8EhEREZHeGB6JiIiISG8Mj0RERESkN4ZHIiIiItIbwyMRERER6Y3hkYiIiIj0xvBIRERERHp768OjTG4EI6PMRq56CGMBGNmi3HulYSmsGZmzF7r0/AjV7aR+REQ5yYxhbmUNS1Mj9TNg9cT9C70UObfHLN9pRIXl7d6cLJtg2qGLOH/2DM6cOYOzF05ieddSUs/8MXLrgV/X/YyOLjIoleXx0SA/OCqknkREGSxRte9iBF+6jDMnjuPslcv4Z2hl1U7V2M4NlZxN1YPpwP0LFS7t26NJlu80osLy1v8WkctvYXGXRmjYsCG86jXGwD8fSH3yJ/3GfLSt0Rm//6d5CA8R0fOK1BiGX4bI8b+21VG1SlW4v98U44NioUQpdF+8HAMrF5GGJHr5dG2PafxOo5dArnlQoVJ8FRrxKYaaJxm+LdKS4hAfH69qktLNUb75EExd9Dt+/20mPm/iBGNhGFmZ1hj54yC0ad4P05esQMDYdnCzcIBnn6lYuno5Zg6sj6LioerSwnCTB6ORvXraKlae6DVhPLrVsJAKgKKNBmPSiJZw5o85IoNkWrQEbONDcfN+EhTCPlOR/BDnLhuh1ajP4W0nR4WPR2PymKH46nv99h1yuxro8v1C/L5yMSb1qAl7HmakPNC6PV4KAzK+04xQqcM4TJo0KUszHl2qmXHbo2zUGVAVCFVtKhntYovy7a95FJkXLQ1XV1e4limNog410b6NHc6t+gXz/opC87kBGFDBCMpUB9Rq3gldfFKwZf5q3KwxDguW/YzPih5BwIL9sOg9H5NaF4UyrShq+VSGRbo0cVHcVVyXNUKPlpWhrktwQL3OXVD+0WWEZ6xZIjIkz46swMqoDli8fir8q9nDSFWaiP/On8W9+DQ8uXEGp86cxBV99h1W9TFu3UJ8FL8Vv87dgoSO/8PivhWkaRK9mPbtUfiez/hOU+LZvRCcPXtW1VxJroSGJS4hOLQGtz3Ks7c/PMoqoteCdfjjjz+w7q9f0a3ECcz6Yjr+DglHVOgxHL5bDO+Vt1QPa/oAW+etxLFzu7Fs5VmUdLiCX+Zuw8mjf2L59iiUfc9ZVUv5vASc+WsP5K3aoLqZ8JYlmqJDlav4c9f9zFRORIYl6QJ+6fQhvt7vhGHrjyM4oAcqm0fg0p5juJcqx9Mru7Fl10ns3/jifUfRZn3QKmoRJiw9ifthZ7Fu+Wk4f+iD0jyyQfrStj1mVngLFAg//Tc2bdqEnXfc0NU3DD+N2YTkptz2KO/e/vCo/BeB3bzRoEED1Kv9MX6NaIyJfx9B8KZFmPxFG1QyVUAuk/4KkqMQlaBuTREPc0c9wdM0sSsdiXFJUBrp/q2VenkTNj31wceetnBt+TFKnVyLAxFSTyIyTClhCPqlD5rU64zV1sPw20Q/5Lx4+sX7DhnsXZxhXakfFm9chzVr1iDwi6pISTKGOQ8fUl7osT3CugFGz2yF8+O+x65IbnuUP+/E5pGWrjnGLEPZj4ag8fXv0LxZW3QdvAghytyveNSb4ib+WXcPNT5sh3ZtiuHI+hN4JvUiIgMk/CjVVM4onp7DyiWHUMSjGhxz7lVfuO9QIi4iEvFXF6Kbjw98NE2Xhbia9fQZotzo2h6z1SA6wG/8D6i+61tMOxIrdHPbo/x5x35bKIVfTCmwqdoUjWvVRtsRX8LPNlXqV3D3d/2Fex7d0FK2ExvOJUqlRGSIin84Havmj0L3Nn5o3m4Avh/lg9iDR3BPkYioaBNU8hL2Qz414SzsZV+073h4YB1OVxyFeWPbo36NWmjW8wdM/LSM1JfoxXRujxnnR8jg9PF0TKh4GH/8Wxot27dH+/Yfo9y/G7ntUZ695eExHld2H0FYlsV4sG4kvt5mhY5fDkTdh9uxZtNeXI43gkwegdO7LuKZdGTaKPEa9h8Ph/oWa0LovHcCJ0JTIDOJxJm9VxBvLP6Qe4JTey7iqWbykYex7T8rxG3/G9dUh7uJyFBFn1yPv++WQONOfdC9VQWEL+qBT6efRAIisXPaZBx17ojujZwgE7+8tew7su1fIrZjRIcR2G/7IYaNGoZ2LteweX/BbjtGhkXX9pio+U4zq4gG7o8QfKkIqtT2RK1atYSmCkol7+S2R3kmq1ChovouPeK/QiP+V65cOezbu1c9RCFxd3dHQoJ0wuFbSubcCcv/8MWmTwZi82OpkIjoBbjvIKKXwcLCAqtWrYKnp6dUUnC+fn64c+cOVCdCiKdDaE6JULULL8J/b3nN46vigo/GzsPSZcNgtmoOtnPnT0R64b6DiN49b3XNo0kxV1hWbQG5ubVU8rIUgV2pUrBLeYh7jxOkQ91E9K5TJD5D/KXdSI0IlUoyifvM9IyL9XThvoMKl5GRkaomKCf9tkd6nXR9dgXxumoe3+rw6DxkDYwVaUh6cEkqISIqPGYuVZEmN0bY/7pKJZmSk5NRpEgRyOU8gEOvhkKhQEpKCkxNn7+LCLfHN1tun11BvLbw6CaER3VozAyQ5cq/HeHRbU4oYpb2hiL6HpTpvIKFiAqPTAiNcocysOu7HLe+cpVKMyUmJqJ48eKq2gSiV0GsWXzy5AnMzc2lkkzcHt9suX12BfGywuPt20J4fC44Zml/28Nj9Px2SI8MFeabB4SIqBDJ5DAq6gr7oVt0hkdHR0epi+jVePjwoc7wyO3xzabrsyuI1xUe3436bQZHIips3K8QEWnFkyOIiIiISG8Mj0RERESkN4ZHIiIiItIbwyMREdE7SQYjUytYWxirL3R4jvoiCKK8YngkIiJ611hVRe/5OxC8Zwu27D2Mvb/1RzVLqZ/ErtlU7D38C9o4SAVEemJ4JCIiesfI7FxhfGAYWjbxRbNG/lik6IQRH5fJrIE0rYpuXSsj6al4oz6ivGF4JCIiesco729D4MZ/ES9mw/RwXLsaDVMbC+lL3xRVe3+JmtcO4rach60p7xgeiYiI3mVm7vBtbIXrF+5DfPq1lecwjG8Sgnmrr4HPZqP8YHgkIiJ6R8lsauKzBTPQ4PgkzD0aB1lxP4wZVxV7flyEkERpIKI8UoVH9RkPqgcUqtt5CgQREdFbzaxSF8xb8z3ctn2OnjOO4ampOwbM+gL2wbsRW+0jdPSrBEuFKco3bYvaTqxLIklGBhRapMdXq2W2c2shIiJ619j54vtZrXF5dDd889ctJIllJtZIu30OTxwqo2q1aqhevRzslHYoX7MSipuoxiLSC8MjERHRO8au3gfwiLiEZ++3QadOnVSNf3M5dk+egAkTpGb2boQZPcLeObOw4x6f5U76Y3gkIiJ6x1ik38WxW0VQrlJFVKyobipVcoFN1ourZTG4dPAiYnjBNeURwyMREdE7Jmzvr5g8eXL25qeNuJIqDSCKOorAqb/hcKTUTaQnhkciIiIi0hvDIxERERHp7d0IjzJmYCIqZNyvEBFpJXOrUFEpEFqVEF/F1vLlymHfvr3qIQqJu7s7EhISpK7C4TYnFDFLe0MRdQ9KBe+TT0SFR2ZkDLl9Gdj1XY5bX7lKpZkSExNRvHhxGBkZSSVEL1d6ejqePHkCc3NzqSQTt8c3W26fXUFYWFhg1apV8PT0lEoKztfXD7fv3IFMJuwHxaehCy0yVSP2ldrf5vDoPGQNjIXQmBZ5RyohIio8xkXLIU1ujLD/dZVKMiUnJ6NIkSIwNjaWSoherrS0NKSkpMDU1FQqycTt8c2W22dXEAyP+RAaGiq1ERG9PK6uz9c8cv9Drwu3x7eXts+uIF5XeJSLoVFFeiEiIiIiyiSExIycqOTV1kRERESkP4ZHIiIiItIbwyMRERER6Y3hkYiIiIj0xvBIRERERHpjeCQiIiIivTE8EhEREZHeGB6JiIiISG8ytwoVpAfMKKH6T2h/l54w4+HhIbURET0vJCREatONT/SgN0l+t0d+H75c+d2XFMSre8JM9nbWPBLRO0/8haxQKFSN+tcyERHlF8MjEb3TsgZHBkgiooKTq59VKB6wVr2oDl+rW4iI3n45w6ImTBIRkTbC/lLcZ6r/V8vRzppHInqnaatlZM0jEVH+MTwSERERkd4YHomIiIhIbwyPRERERKQ3hkciIiIi0hvDo0huDFMra1iZGb/6FWJeEb6d/OFdxkiYDxuUqeACy/zMREGWIes8EBEREeXCsMOjzBpVu83AhqAjOLRnN/YdPoGj64agirHU/1VQ2KF+zw54z0gJeTl/zFj2I9o4yaSeeiiMZcgyD0RERES5MeDwaImaw5dgfvtYBPbyRYMGDVC/biO0nxyMGGmIV01xKxBdGvfHnw/0DXFv3jIQERHRu81gw6O8vD9Gto/C/OFTsfNOHNKFMqUiAeEhl/Eg3RyuTfth/OwABPwyEf29SkJdkWcKl0b98P3chQiYPQ7da9qpSmHuCt+BEzEvIAC//NAfXiWF1SrTNQ3AqJgnuo2dg4CFM/BFizIwkW69KXPxw7CxfdFAnGwu42vkugxpQn/rymgr9Ju/KABzJ/SGl5OJekSBrnkQyW2rouO3sxAQMAdj/D1gZ9j100RERJSFwcYCR08vOF7ZieAwLU+aMPNAm5a2CFkfgEX/xKDp9DnoWV4OmyYTsGRkGZxbsQCB2+9CZiOEMbOqGLxkGQa5XMLq+QH464YRilrJdE4DVvUwevkctE7ZhyUBmxHR4GM0tFa/rTLNAR7eFWEupkBd42eR6zJY1cWoFQvR1eYMVgUEYmeMNyatmIqWxcR+uucBVnUwctlstE7YhUUBO5D40c+Y2628gZ/fQERkIEztYGeedY8vg5GpFawtjIU2IjW5qr5J+kffg6VvPzksbG2QGh2NRKkkm8QTWPDdXOy8/BDR90/ieKgDKrhawtjKCibJMXh49ypO712FlcFPYOfdE+3Sf8c3E9fjxKXzCF6zCP/cEtKfjmnYe3dC44jFGDNrK05dOIrVP63AuVQtf5I6xs+U+zI4eHdGs+hFGDllI46fO42d88Zg3g0PdGjilOs8OHh3QbOo5Zi28izCwi9g89rzcGzhjVLcaxARvcOKoLhnT8zeuAYjaluoi6yqovf8HQjeswVb9h7G3t/6o1rWryF6p2VkQmWWfCi1G2iFkgJxUdEwLVUK9lpCkaxYY4xeswNbV87B2IGt4GaqgFwmQ9Su6Zh8wgOTtx3A5tm94GEjg0NpF6TeuIaHOSr/tE9DDnvHEki9fRsRmuGTnuJpktSeha55yJTbMshg71QSKXdDEZXxiT/F/XvxsC5mBwed8yCDnbMTrCt2x9yVyxAYGIh5g9yRmmwMc4ZHIqJ3VDG0mb0N60bXgPyZIqOGUWbnCuMDw9CyiS+aNfLHIkUnjPi4DGsgyXCPRj46vhc3yvujax0rqURDhtKt+qHhzUlo364LBoxcjstKU3WvtHAcmNUHLX26Y0nKJ/ihfw2kRMXAzNUVDtnWpK5pKJHwLB5mzo6wUQ8I2DjCUXPIOEMu85CF7mVQIjYiKsd82cCltAWiH0UiXuc8KBEXGYWE60sxoG1btNU0/ZfiupYj40RE9C6Iw/GfO6GV/yycSsm8ZZvy/jYEbvwX8WIlRHo4rl2NhqmNBU9jIsPdBpRhmzHt1wdo9es6LPjKH80bN4Zfu36YMKUXyqWmwKpyQ3hVr4lWnw+Cj02qapzSbUdgeHsveFR0hq2Q5ZISkvAw6A8ccR6K2WM+QQNheL++w9CurAxpydqn8ejwNlxzH4ZJn/uhVk1fDP6uLRxjM6oHJUqd42elexl6o8TRtTjoOASzxnRE/Rq10Wr4VAwtfRir9z/OdR4eH96Mc27D8dOINqhTtToad/oWo9uVUvUjIqJ3URIiwqKQnPOrKCszd/g2tsL1C/dVF2eSYTPgHxBpuLtuKNr1nIcQ6/ro2KM72nkVx709QTi9aTzG77ZC28G9UOvRHmzYGoRrCXI8uxMK43rdMHhIRzgfm4DhgVeR9vQQfuw+DBtT66Pn4L7wsbiNK5EKhG3WPg3lo78xqu9MXHHtgAE96iF6/UpsDD6OMMggM4nC+eDrSBB++OkaPzvdy3A36iimdB+KDcn10WtIXzQz3o4RvafiaKwQOnOZB0TuwbgeY3HQpgUGDB+A1s7/YvvBMOn9iIjI0MhsauKzBTPQ4PgkzD0aJ5WSIZOVd6ugVJ8AqXoRkoUS5cuXw759+9RDFBJ3d3ckJCRIXYUjNDRUatPNw8NDaiMiQ5SWlia1ZWdsrL75VUhIiOo1N66urlJbJn32P0QvQ363xxd/H7qg24pAVA78FOMPqUOiWaUumDm7ExKXfo0Jf92CllP0SZLffUlBWFhYYNWqVfD09JRKCs7X1xe3b98REqJM+F9oxMIc7Tx1gYiIiJ5n54vvZ7XG5dHd8A2DI2XB8EhERETPsav3ATwiLuHZ+23QqVMnVePfvj5K5eXxt/ROYngkIiIigQLhJ4Pxb5I6Glik38WxW0VQrlJFVKyobipVcoEN79Vj8HjOIxG903jOI71rXt45j1QQPOeRiIiIiEgLVXhU3dpJ+kf9HxEREREZGtVB6BxtObHmkYiIiIj0xvBIRERERHpjeCQiIiIivTE8EhEREZHeGB6JiIiISG8Mj0RERESkN4ZHIiIiItIbwyMRERER6Y3hkYiIiIj0xvBIRERERHpjeCQiIiIivcmhzHyCYcYjDLU/yvDdJTeGqZU1rMyMX32aNq8I307+8C5jJMyHDcpUcIFlfmaiIMuQdR70JJPLIc/ayKQehUwmk+G5Seu5nmROddGxcytUtZUKiIiIKHeaQCj+r36RupVSuxgeDZnMGlW7zcCGoCM4tGc39h0+gaPrhqCKsdT/VVDYoX7PDnjPSAl5OX/MWPYj2jjlIYkVxjJkmQe9WHhhwvajOBQchKCgIAQf3of/feIs9dTO2LYc3JxMpS49Ce/z/Y7V6F02+/rQdz0pFa5o1bspSiikghzyNU9EREQGzoDDoyVqDl+C+e1jEdjLFw0aNED9uo3QfnIwYqQhXjXFrUB0adwffz7QM8S9xmWQye7g9wEfoHXr1mjVvA2+2BQu9dHGGf5zF6B3RROpOw/EmsccqyPv60mbAswTERGRATPY8Cgv74+R7aMwf/hU7LwTh3ShTKlIQHjIZTxIN4dr034YPzsAAb9MRH+vklBX5JnCpVE/fD93IQJmj0P3mnaqUpi7wnfgRMwLCMAvP/SHV0lhtcp0TQMwKuaJbmPnIGDhDHzRogxMpIpgmYsfho3tiwbiZHMZXyPXZUgT+ltXRluh3/xFAZg7oTe8nDKDkq55EMltq6Ljt7MQEDAHY/w9YKdjK0lNjEd8vLpJVjjBd8hYDBempRpcXhotho3FZ02qwW94f9S3laPcB19i3LDmKF1aWM4xfdCySXf8MPtHdKxo/cJlzSrbehIYFauNbuOEZQmYgeFt26LX6K/Qxi1zCpaVO+BbYdoLfxqKZi7COpC5PDdPpQz4ZxQREVFeGOxXpqOnFxyv7ERwmJZjmmYeaNPSFiHrA7Donxg0nT4HPcvLYdNkApaMLINzKxYgcPtdyGyEIGJWFYOXLMMgl0tYPT8Af90wQlErmc5pwKoeRi+fg9Yp+7AkYDMiGnyMhtbqt1WmOcDDuyLMxRSoa/wscl0Gq7oYtWIhutqcwaqAQOyM8cakFVPRspjYT/c8wKoORi6bjdYJu7AoYAcSP/oZc7uV17qhWLtWh6enJzxr1UR524c4fDAW3iOGoKmQNh0/HIFh1W5j55EwPAi5gPvxaYi8eQFnr4QhQVzOhq3QoU1JXDpwHpFFXrysWWVbT1b18e3SWWiVsh9LA7Yguv4n6NK6HhyV0jpRVkZ7/6I4vvw37E70xcRpXeAqT3punhLVQxMRGTZTO9iZa9v/ylTnoBOJdH9Dv9PksLC1QWp0tPbQkHgCC76bi52XHyL6/kkcD3VABVdLGFtZwSQ5Bg/vXsXpvauwMvgJ7Lx7ol367/hm4nqcuHQewWsW4Z9bQqrRMQ17705oHLEYY2ZtxakLR7H6pxU4l6rlD1LH+JlyXwYH785oFr0II6dsxPFzp7Fz3hjMu+GBDk2ccp0HB+8uaBa1HNNWnkVY+AVsXnseji28Ueq5WXSG36BR+Oqrr/D1yL5oXFKO5EtLMG2HC/oMHYove1li7ZR1CE2LxNWgU7ifJkfsjQPYvu8yIoVcJ7NJwuFf52DDP38h6PKRFyyrbvben6JJdCDG/fwPTp4/gpUzViIkTeopsozAztmBCA45g81LNuGucxVUsNA+T0REhqsIinv2xOyNazCitoVUlsmu2VTsPfwL2jhIBWTQDDQ8KhAXFQ3TUqVgryW3yYo1xug1O7B15RyMHdgKbqYKyIVfXFG7pmPyCQ9M3nYAm2f3goeNDA6lXZB64xoe5ggf2qchh71jCaTevo0IzfBJT/E0SWrPQtc8ZMptGWSwdyqJlLuhiMo4Gv0U9+/Fw7qYHRx0zoMMds5OsK7YHXNXLkNgYCDmDXJHarIxzJ97jzBsGdcT3bt3R9euw7D8mpjYEnBuya+4Wr8TSmyaij9DxapBHRIeIixGPQMvXlZdhOV0dBSW5Rae6FqfiZGIjFOvBGVSHOLTjSA30K2eiEi7YmgzexvWja4B+TPF83e4MK2Kbl0rC7vXgpxnTu8Sg/0afXR8L26U90fXOlZSiYYMpVv1Q8Obk9C+XRcMGLkcl5XSFblp4Tgwqw9a+nTHkpRP8EP/GkiJioGZqyscsq1JXdNQIuFZPMycHWGjHhCwcYSj5pBxhlzmIQvdy6BEbERUjvmygUtpC0Q/ikS8znlQIi4yCgnXl2JA27Zoq2n6L8X1HOFYpFDkLDRDtR6D8N7ZnUjt8jXaOOW+eanvEqXHsurMkUokxgnLIgTIjFVoVRKOOVcHERHlIg7Hf+6EVv6zcCol5y3bTFG195eoee0gbr+se7LRW8dgw6MybDOm/foArX5dhwVf+aN548bwa9cPE6b0QrnUFFhVbgiv6jXR6vNB8LFJVY1Tuu0IDG/vBY+KzrAV8k1SQhIeBv2BI85DMXvMJ2ggDO/XdxjalZUhLVn7NB4d3oZr7sMw6XM/1Krpi8HftYVjbM5fc0qd42elexl6o8TRtTjoOASzxnRE/Rq10Wr4VAwtfRir9z/OdR4eH96Mc27D8dOINqhTtToad/oWo9uVUvXLRmmM8s26o1evXqqmm68b7GsNxcQP72HRzOmYtdEaA0e3gfpuOomIijaBWx1heRpVg2O2re4Fy5rjfbo0dMm20T4Ul+X94ZgsLEvNGsKyjG2PUnqdwJjbPBERGZIkRIRFIVlLxaKV5zCMbxKCeauvIesZQWTYDPgrMw131w1Fu57zEGJdHx17dEc7r+K4tycIpzeNx/jdVmg7uBdqPdqDDVuDcC1Bjmd3QmFcrxsGD+kI52MTMDzwKtKeHsKP3YdhY2p99BzcFz4Wt3ElUoGwzdqnoXz0N0b1nYkrrh0woEc9RK9fiY3BxxEGGWQmUTgffB0Jwg8/XeNnp3sZ7kYdxZTuQ7EhuT56DemLZsbbMaL3VByNFfJYLvOAyD0Y12MsDtq0wIDhA9Da+V9sPxgmvZ9ElogbQReQ5OyK0qVLq5pSJd+DTxNT7JyxAEefpeLGHz9j2X9V8EGDosII0dg/92ecdGoL/waOMDIWlvPAVdVyinQuq/A+1w+cR6JTGZQqVUrVONmZZltPyodbhGX5CZeFZfmsVz1E/rkBIYoUJKcoIZNH4tyBy4jVrDZ5FC4cuIRYVaDNPk9yHo0hIspGVtwPY8ZVxZ4fFyGEVxVSFrLy5d1URw+VqtuIi3cPV6J8ufLYv3+feohC4u7ujoSEBKmrcISGhkptunl4eEht9E4yMYcFEpEgVVZa1ByJ1VPMML3jZJzgzo4EaWna60uMjdW3cwoJCVG95sbV1VVqy6TP/ofoZcjv9vji70MXdFsRiMqBn2L8ydIY+NsM1Dy7FgcepCJd6YyWfd/HpcCtOHpsG06HazmXycDld19SEBYWFli1apXqzieFpVkzX9y+c1us0hJSovoqe/EyhKzdUp2MutpF9S9rYOhtYt8aM//ZhMUzJ2HS7BX4a74fbs5fglMMjkRE+WdijbTb5/DEoTKqVquG6tXLwU5ph/I1K6E4n61gEDLjoFi5mKVbqTTkw9b0Tni8GSP7jMXSHYdxeMs8DPmwLUZtDwd/ExMRFUDcSSz9YQImTJCa2bsRZvQIe+fMwo573MMaOoZHesspkBh+Bcf378Ku4DO4HfP8hUVERKQPBcJPBuPfJC3RQBaDSwcvIkZ1zjgZOoZHIiIiEoRj/4Lp+P1UrNSdRdRRBE79DYcjpW4yaAyPRERERKQ3hkciIiIi0hvDIxERERHpjeGRiIiIiPTG8EhEREREemN4JCIiIiK9MTwSERERkd4YHomIiIhIb+rwmOV51urWLAVEREREZDCUWWOglkjImkciIiIi0hvDIxERERHpjeGRiIiIiPTG8EhEREREemN4FMmNYWplDSsz41e/QswrwreTP7zLGAnzYYMyFVxgmZ+ZKMgyZJ0HPclkMsik9gx6zr/MqS46dm6FqrZSAdFLJG6rRESFQalUQqFQID09XfVqqAw7PMqsUbXbDGwIOoJDe3Zj3+ETOLpuCKoYS/1fBYUd6vfsgPeMlJCX88eMZT+ijVMevuwKYxmyzINeLLzw/Y7V6F02+3zqO/9KhSta9W6KEjr+7oxty8HNyVTqIip8crlh7/qIKO+yhkZNiDTUAGnAe1BL1By+BPPbxyKwly8aNGiA+nUbof3kYMRIQ7xqiluB6NK4P/58oO+tkl7jMog1jzlmM+/zr40z/OcuQO+KJlI3UcEYGRllC4tiO8MjEeWVGBhz0lZmCAx2Dyov74+R7aMwf/hU7LwTh3ShTKlIQHjIZTxIN4dr034YPzsAAb9MRH+vklBX5JnCpVE/fD93IQJmj0P3mnaqUpi7wnfgRMwLCMAvP/SHV0lhtcp0TUP4MivmiW5j5yBg4Qx80aIMTKSbKMlc/DBsbF80ECeby/gauS5DmtDfujLaCv3mLwrA3Am94eWUGch0zYNIblsVHb+dhYCAORjj7wE7PbeSbPMvMCpWG93GCe8RMAPD27ZFr9FfoY1b5lJYVu6Ab4XlW/jTUDRzEeZN5gK/4f1R31aOch98iXHDmqMUv+OpEIhhUQyROYMkEZG+GB4zGexe1NHTC45XdiI4TEuVs5kH2rS0Rcj6ACz6JwZNp89Bz/Jy2DSZgCUjy+DcigUI3H4XMhsh8JhVxeAlyzDI5RJWzw/AXzeMUNRKpnMasKqH0cvnoHXKPiwJ2IyIBh+jobX6bZVpDvDwrghzMQXqGj+LXJfBqi5GrViIrjZnsCogEDtjvDFpxVS0LCb20z0PsKqDkctmo3XCLiwK2IHEj37G3G7l9dpQss2/VX18u3QWWqXsx9KALYiu/wm6tK4HR6U0r8rKaO9fFMeX/4bdib6YOK0LXOVJeBByAffj0xB58wLOXglDonpoogJTnafL8x+JcmdqBzvz5/f48iKWsLIsYuDnupGG3NyiCFSNuUlGY2KSlxPm3kZyWNjaIDU6Wns4STyBBd/Nxc7LDxF9/ySOhzqggqsljK2sYJIcg4d3r+L03lVYGfwEdt490S79d3wzcT1OXDqP4DWL8M8tIT3pmIa9dyc0jliMMbO24tSFo1j90wqcS9XyhaZj/Ey5L4ODd2c0i16EkVM24vi509g5bwzm3fBAhyZOuc6Dg3cXNItajmkrzyIs/AI2rz0PxxbeKJXH71x770/RJDoQ437+ByfPH8HKGSsRkib1FFlGYOfsQASHnMHmJZtw17kKKlhE4mrQKdxPkyP2xgFs33cZkYZ5OgkR0StWBMU9e2L2xjUYUdtCKhOYuaHD9C04eGArtmzbi9WD3aH/pZX0NhJzoJ2teWZjZ6Fq7DWNvaWQQKQqV1XVq8HUvioQFxUN01KlYK8lFMmKNcboNTuwdeUcjB3YCm6mCshlMkTtmo7JJzwwedsBbJ7dCx42MjiUdkHqjWt4mCPkaJ+GHPaOJZB6+zYiNMMnPcXTJKk9C13zkCm3ZZDB3qkkUu6GIirjM32K+/fiYV3MDg4650EGO2cnWFfsjrkrlyEwMBDzBrkjNdkY5nkKj8L7OzoK73ELT3QtZ2IkIuOkbS8pDvHp4uFEVScREb1SxdBm9jasG10D8meKLHfSsEKDr6ajc+xsfNzIB75Nm6L30n9Vp0jRu+1FR+MN9uv60fG9uFHeH13rWEklGjKUbtUPDW9OQvt2XTBg5HJcVkpX/qaF48CsPmjp0x1LUj7BD/1rICUqBmaurnDItiZ1TUOJhGfxMHN2hI16QMDGEY6aQ8YZcpmHLHQvgxKxEVE55ssGLqUtEP0oEvE650GJuMgoJFxfigFt26Ktpum/FNe11QDqDJRKJMYJ7yEEyIxFsyoJx5yzSUREb4A4HP+5E1r5z8KplCz1isV90b3hHfz2v4NSZYMCyclZDyGRoTLY8KgM24xpvz5Aq1/XYcFX/mjeuDH82vXDhCm9UC41BVaVG8Krek20+nwQfGxSVeOUbjsCw9t7waOiM2yFLJeUkISHQX/giPNQzB7zCRoIw/v1HYZ2ZWVIS9Y+jUeHt+Ga+zBM+twPtWr6YvB3beEYmzPiK3WOn5XuZeiNEkfX4qDjEMwa0xH1a9RGq+FTMbT0Yaze/zjXeXh8eDPOuQ3HTyPaoE7V6mjc6VuMbldK1S8bpTHKN+uOXr16qZouDV2ybUwPxfd4fzgmC+9Rs4bwHmPbo5ReJzAmIiraBG51hGVvVA2OBruFEhG9KkmICItCco6vIqvKtVHmyUOUGhyADf9sxuqf+6NO9poSMlAGvBWk4e66oWjXcx5CrOujY4/uaOdVHPf2BOH0pvEYv9sKbQf3Qq1He7BhaxCuJcjx7E4ojOt1w+AhHeF8bAKGB15F2tND+LH7MGxMrY+eg/vCx+I2rkQqELZZ+zSUj/7GqL4zccW1Awb0qIfo9SuxMfg4wiCDzCQK54OvI0H44adr/Ox0L8PdqKOY0n0oNiTXR68hfdHMeDtG9J6Ko7FC7stlHhC5B+N6jMVBmxYYMHwAWjv/i+0Hw6T3k8gScf3AeSQ6lUGpUqVUjZOdabb5Vz7cIrzHT7gsvMdnveoh8s8NCFGkIDlFCZk8EucOXEasZnHkUbhw4BJiVTWZ0dg/92ecdGoL/waOkL+g6pyIiF4OcwcH2Lo3RZW7Afii/zdYHd8GM6a2h3OeTmOid5GsSpXKqkPbqhtdCi1K4T/XMmWxa9du9RCFxN3dHQkJCVJX4QgNDZXadPPw8JDa6JUyMYcFEpEgVZha1ByJ1VPMML3jZJzgJdT0BgkJCZHadHN1dZXaMumz/yF6GfK7Pb74+9AF3VYEonLgpxh/KA5F287Dpq4X0KvbEtwRIoKsdA+sWFETazqMwM7XdUPk1ygtTfshe2Nj9UXG+d2XFISFhQVWrVoFT09PqaTgPvywFf777x7kcvUdKrQ1rH+ml8O+NWb+swmLZ07CpNkr8Nd8P9ycvwSnGByJiN4KsbdvItLMBpbSDVhkciMYpyUikac9GjyGR3o5Hm/GyD5jsXTHYRzeMg9DPmyLUdvDoe26GyIievOkXt2MP5+0xvhvO6BuTR8M/PYTGO3chFNx0gBksBge6SVRIDH8Co7v34VdwWdwO+b5C36IiOhNokD4yWD8myRFA8U9/DFiGFYneqP/kI9RNHgcBs09jcI9AY3eRgyPREREJAjH/gXT8fupWKlbEHcdf/88AgMHfIEpf55HNA8fkYDhkYiIiIj0xvBIRERERHpjeCQiIiIivanuwax6rrX4Kv73ogcaEhEREdE7SR0D1XkwMxJqWtSvrHkkIiIiIr0xPBIRERGR3hgeiYiIiEhvDI9EREREpDeGRyIiIiLSG8MjEREREemN4ZGIiIiI9MbwSERERER6Y3gkIiIiIr0xPIrkxjC1soaVmfGrXyHmFeHbyR/eZYyE+bBBmQousMzPTBRkGbLOQ17IjGFmZQVLUzlkUlGB5Fh+mVwOudjkYeIyp7ro2LkVqtpKBVnldzmJiIgog9acIT6m0CDIrFG12wxsCDqCQ3t2Y9/hEzi6bgiqGEv9XwWFHer37ID3jJSQl/PHjGU/oo1TXtJSISxDlnnQjwXcu83F1iPHELR7N4KOHcfa/hULHLyzLb+FFyZsP4pDwcEIDj6IvetmoOv7ltKQuikVZdG6d1OUUEgFWamWs30elpOIiMiQZX1MofpV7C7o9/1bzBI1hy/B/PaxCOzliwYNGqB+3UZoPzkYMdIQr5riViC6NO6PPx/oG25ezzIUqToQ0/rJsbSLN7y8GqJegzaYciSuwD85ci6/THYHvw9ojZYfdMTog84YPM4f5QqlipOIiIjyy2DDo7y8P0a2j8L84VOx804c0oUypSIB4SGX8SDdHK5N+2H87AAE/DIR/b1KQl2RZwqXRv3w/dyFCJg9Dt1r2qlKYe4K34ETMS8gAL/80B9eJYXVKtM1DcComCe6jZ2DgIUz8EWLMjCRYpfMxQ/DxvZFA3GyuYyvkesypAn9rSujrdBv/qIAzJ3QG15OJuoRBbrmQSS3rYqO385CQMAcjPH3gF2OraRI0eKwSfgPt8OToRDGUyQ/xsWr4aopaBtXVkpYru/6oGXT7vj+14WYPeIDlDO3Q41u4/Hr4gX4sXdt2IvDZV1+SWpSPBLinuDK2ZtIMDVHESk85rZsWT2/nERERFQQBhseHT294HhlJ4LDtBzfNPNAm5a2CFkfgEX/xKDp9DnoWV4OmyYTsGRkGZxbsQCB2+9CZiNEEbOqGLxkGQa5XMLq+QH464YRiloJCUfHNGBVD6OXz0HrlH1YErAZEQ0+RkNr9dsq0xzg4V0R5mIK1DV+Frkug1VdjFqxEF1tzmBVQCB2xnhj0oqpaFlM7Kd7HmBVByOXzUbrhF1YFLADiR/9jLndymfbUOKOr8W66LaYs3w82r9vl9lPx7iyVHt4+LRHx0Yp2PHbOtzx+BozF0xCb4cTWBZ4EOadZ2Csn3325Rcp5Sjp0Rxt/Idh6sgqOP6/9bghLmpuy5ZVbstJRETPM7WDnXn27xqZsTmsLIsY8qFKysFAtwU5LGxtkBodjUSpJJvEE1jw3VzsvPwQ0fdP4nioAyq4WsLYygomyTF4ePcqTu9dhZXBT2Dn3RPt0n/HNxPX48Sl8wheswj/3BLSj45p2Ht3QuOIxRgzaytOXTiK1T+twLlULcdidYyfKfdlcPDujGbRizByykYcP3caO+eNwbwbHujQxCnXeXDw7oJmUcsxbeVZhIVfwOa15+HYwhulss5i8iUE9OuEcQdLYsDyPdg22x8VzV8wrmk4di1ah5MhB7DqjwsoYX8dAf/bjbMnN2PN3hiUqeCE5y9jsUe1Fm3Q0rcOXC1t4Fa3CooLW2xuy5aV9uWUehIRURZFUNyzJ2ZvXIMRtS2kMhO4fTIb/wTvwT/b9mH3iq/gZS/1IoNmoOFRgbioaJiWKgV7LblNVqwxRq/Zga0r52DswFZwM1VALpMhatd0TD7hgcnbDmDz7F7wsJHBobQLUm9cw8MclX/apyGHvWMJpN6+jQjN8ElP8TRJas9C1zxkym0ZZLB3KomUu6GIyjga/RT378XDupgdHHTOgwx2zk6wrtgdc1cuQ2BgIOYNckdqsjHMc75HSjiOBAxFG7++WG/1GX4Z3RSlchs3KQYxUspNTUxEfHQkYlU1jGlIik+C0ljLFduySOyf9SWGfdYT7Tv+gH+bfIPe1U1zWTbbLBu0sA70XNdERIatGNrM3oZ1o2tA/kyRuS92/AjfDHHAhp6+8GnaBhNuNMKIPjVhKvUmwyVPTEyBuklFktSkpmqOG767Hh3fixvl/dG1jpVUoiFD6Vb90PDmJLRv1wUDRi7HZaX0p5IWjgOz+qClT3csSfkEP/SvgZSoGJi5usIhWwzXNQ0lEp7Fw8zZETbqAQEbRzg+dyg1l3nIQvcyKBEbEZVjvmzgUtoC0Y8iEa9zHpSIi4xCwvWlGNC2Ldpqmv5LcT1rOBZCrGbnooi9iHWrjqFIVXeYR+kxbh6JV3WppCYiIa0ILC2Mc1m2KCFSa+i7romIDF0cjv/cCa38Z+FUSuYxIJmRGczSHuG/J8lC1zOE34+DiaWpodY6GYzEpBQ8fZqoamIymgRERwtNjLox2G1AGbYZ0359gFa/rsOCr/zRvHFj+LXrhwlTeqFcagqsKjeEV/WaaPX5IPjYqI91lm47AsPbe8GjojNshSyXlJCEh0F/4IjzUMwe8wkaCMP79R2GdmVlSEvWPo1Hh7fhmvswTPrcD7Vq+mLwd23hGJt5sYqaUuf4Weleht4ocXQtDjoOwawxHVG/Rm20Gj4VQ0sfxur9j3Odh8eHN+Oc23D8NKIN6lStjsadvsXodqVU/TSKtfgei2YMh3/LJmjauie+GeqNZ0dOIOTQi8fNE6UxyjXrjt79h2PSopn4KP5vbDobjycHdS9bVtqXU+pJRESSJESERSE5x1eR8sHfWLDDCUPn/IivR8/Fz59G4fcVp7Wf7kUGxYB/QKTh7rqhaNdzHkKs66Njj+5o51Uc9/YE4fSm8Ri/2wptB/dCrUd7sGFrEK4lyPHsTiiM63XD4CEd4XxsAoYHXkXa00P4sfswbEytj56D+8LH4jauRCoQtln7NJSP/saovjNxxbUDBvSoh+j1K7Ex+DjCIIPMJArng68jQfjhp2v87HQvw92oo5jSfSg2JNdHryF90cx4O0b0noqjQnjKbR4QuQfjeozFQZsWGDB8AFo7/4vtB8Ok91OLPrsFO/8rigbtu8HfrzwerhiE3nPPIlHHuDKjKJzbfwXPpB+0Ron/4uCph0JEFimRcv80zvyXlm35IUvEjQPnkehUBi7Fi+DB32PRSVjO8+Je66nuZZPJI3A2SHgvYVXlupxERJQ7s1LwqFJc+J6LwbOnEYg1dkOtSvbcgxJk5cqXV2bcAFL1qkR5t/I4sH+/eohC4u7ujoSEBKmrcISGhkptunl4eEhtRETPCwkJkdp0c3V1ldoy6bP/IXoZ8rs9vvj70AXdVgSicuCnGH8oDk4dA7Ci+R70GrwR4UJGMK0xEuunmuDHDtNw2gDPH09LS5PasjM2Vt9IL7/7koKwsLDAqlWr4OnpKZUUnE+zZrh96zZk4nUW4mlqqkZoFX82SN08dYGIiIhykMPS3h5GSYkZh7PThPY0CwfY8YoZg8fwSERERDkocDdoJ8JqD8f3A1uhYaOO+Gb8JzA/uB2nn0qDkMGSq048k35VSC9ERERkcBQIPxmMf5PU9UppN5fhs56zca30B+jR1QvKraPQ88cDr+0RvvRqqTOh8K/mricZDPrZ1kRERJQpHPsXTMfvpzJvS5FwezcWjh+OQYO/xvS1p/FE+2l/ZGAYHomIiIhIbwyPRERERKQ3hkciIiIi0hvDIxERERHpjeGRiIiIiPTG8EhEREREemN4JCIiIiK9MTwSERERkd4YHomIiIhIb/LMh86IbUrpcTREREREZIiey4JCQdYy1jwSERERkd4YHomIiIhIbwyPRERERKQ3hkeR3BimVtawMjN+9SvEvCJ8O/nDu4yRMB82KFPBBZb5mYmCLEPWecgLmTHMrKxgaSqHTCoqkBzLL5PJnp+unutI5lQXHTu3QlVbqYCIiIgKxSvPSm8UmTWqdpuBDUFHcGjPbuw7fAJH1w1BFWOp/6ugsEP9nh3wnpES8nL+mLHsR7RxykMUK4xlyDIP+rGAe7e52HrkGIJ270bQseNY279igTembMtv4YXvd6xG77LZ14W+60ipcEWr3k1RQiEV5GBsWw5uTqZSFxEREenLgMOjJWoOX4L57WMR2MsXDRo0QP26jdB+cjBipCFeNcWtQHRp3B9/PtA3xL2eZShSdSCm9ZNjaRdveHk1RL0GbTDlSFyBr9R/bvnFmsccE837OtLGGf5zF6B3RROpm4iIiPRlsOFRXt4fI9tHYf7wqdh5Jw7pQplSkYDwkMt4kG4O16b9MH52AAJ+mYj+XiWhrsgzhUujfvh+7kIEzB6H7jXtVKUwd4XvwImYFxCAX37oD6+SwmqV6ZoGYFTME93GzkHAwhn4okUZmEixS+bih2Fj+6KBONlcxtfIdRnShP7WldFW6Dd/UQDmTugNL6fMsKRrHkRy26ro+O0sBATMwRh/D9jl2EqKFC0Om4T/cDs8GQphPEXyY1y8Gq6agrZxZaWE5fquD1o27Y7vf12I2SM+QDlzO9ToNh6/Ll6AH3vXhr04XNbl1yHnMEbFaqPbOGE5AmZgeNu26DX6K7Rxy1xTlpU74FthHS78aSiauQjLL3OB3/D+qG8rR7kPvsS4Yc1RymD/CoiIiPLOYL82HT294HhlJ4LDtBzXNPNAm5a2CFkfgEX/xKDp9DnoWV4OmyYTsGRkGZxbsQCB2+9CZiOEEbOqGLxkGQa5XMLq+QH464YRilrJdE4DVvUwevkctE7ZhyUBmxHR4GM0tFa/rTLNAR7eFWEupkBd42eR6zJY1cWoFQvR1eYMVgUEYmeMNyatmIqWxcR+uucBVnUwctlstE7YhUUBO5D40c+Y2618tg0l7vharItuiznLx6P9+3aZ/XSMK0u1h4dPe3RslIIdv63DHY+vMXPBJPR2OIFlgQdh3nkGxvrZZ19+HbINY1Uf3y6dhVYp+7E0YAui63+CLq3rwVEprQ9lZbT3L4rjy3/D7kRfTJzWBa7yJDwIuYD78WmIvHkBZ6+EIVE9NBGRAZPByNQK1hbGz59rbmQKS0tTGOV+thAZEAMNj3JY2NogNTpae3BIPIEF383FzssPEX3/JI6HOqCCqyWMraxgkhyDh3ev4vTeVVgZ/AR23j3RLv13fDNxPU5cOo/gNYvwzy0h2eiYhr13JzSOWIwxs7bi1IWjWP3TCpxL1fIXqWP8TLkvg4N3ZzSLXoSRUzbi+LnT2DlvDObd8ECHJk65zoODdxc0i1qOaSvPIiz8AjavPQ/HFt4olXUWky8hoF8njDtYEgOW78G22f6oaP6CcU3DsWvROpwMOYBVf1xACfvrCPjfbpw9uRlr9sagTAUn5PFyHWE5PkWT6ECM+/kfnDx/BCtnrERImtRTZBmBnbMDERxyBpuXbMJd5yqoYBGJq0GncD9NjtgbB7B932VE6jgvkojIIFhVRe/5OxC8Zwu27D2Mvb/1RzXV140cjn4TsenAHvyzbR/2/zkajRxUY5CBM9DwqEBcVDRMS5WCvZbcJivWGKPX7MDWlXMwdmAruJkqIJfJELVrOiaf8MDkbQeweXYveNjI4FDaBak3ruFhjgCifRpy2DuWQOrt24jQDJ/0FE+TpPYsdM1DptyWQQZ7p5JIuRuKqIyj0U9x/148rIvZwUHnPMhg5+wE64rdMXflMgQGBmLeIHekJhvDPOd7pITjSMBQtPHri/VWn+GX0U1RKrdxk2IQI6Xc1MRExEdHIlZVw5iGpPgkKI3zesW2sIyOjsJy3MITXesyMRKRceoVoEyKQ3y6EeQGusUTEekis3OF8YFhaNnEF80a+WORohNGfFxG+B5qgW9GlsXf/ZqjWdMP8N2FuhgxsB4spPHIcGn5KhW+bDNPf3tnPTq+FzfK+6NrHSupREOG0q36oeHNSWjfrgsGjFyOy0rpqty0cByY1QctfbpjScon+KF/DaRExcDM1RUO2dakrmkokfAsHmbOjrBRDwjYOMJRc8g4Qy7zkIXuZVAiNiIqx3zZwKW0BaIfRSJe5zwoERcZhYTrSzGgbVu01TT9l+J61nCc5RY6itiLWLfqGIpUdYd5lB7j5pXORKlEYpywHEKAzFh9ViXhmHNVEBFRrpT3tyFw47+IF7/708Nx7Wo0TG0sULxOC7jf2YJt/yYLPWJxZvtxmDRsiPJ5uZsHvaXEjSEzDKrbpDLhf4Oth1GGbca0Xx+g1a/rsOArfzRv3Bh+7fphwpReKJeaAqvKDeFVvSZafT4IPjapqnFKtx2B4e294FHRGbZClktKSMLDoD9wxHkoZo/5BA2E4f36DkO7sjKkJWufxqPD23DNfRgmfe6HWjV9Mfi7tnCMzfyA1JQ6x89K9zL0Romja3HQcQhmjemI+jVqo9XwqRha+jBW73+c6zw8PrwZ59yG46cRbVCnanU07vQtRrcrpeqnUazF91g0Yzj8WzZB09Y98c1Qbzw7cgIhh148bp4ojVG+WXf06tVL1XRp6JJtg30oLsf7wzFZWI6aNYTlGNsepfQ6gTERUdEmcKsjrN9G1eBosH8FREQ5mLnDt7EVrl8Ig10pRyTdCcVTqVfyo//w2MwRjlnPoCKDZMBfm2m4u24o2vWchxDr+ujYozvaeRXHvT1BOL1pPMbvtkLbwb1Q69EebNgahGsJcjwT/oiM63XD4CEd4XxsAoYHXkXa00P4sfswbEytj56D+8LH4jauRCoQtln7NJSP/saovjNxxbUDBvSoh+j1K7Ex+DjCIIPMJArng68jwQg6x89O9zLcjTqKKd2HYkNyffQa0hfNjLdjRO+pOBorZLJc5gGRezCux1gctGmBAcMHoLXzv9h+MEx6P7Xos1uw87+iaNC+G/z9yuPhikHoPfcsEnWMKzOKwrn9V/BMOqnRKPFfHDz1MOOXTMr90zjzX1q25YcsEdcPnEeiUxmUKlVK1TjZmWYbRvlwi7AcP+GysByf9aqHyD83IESRguQUJWTySJw7cBmxmlUmj8KFA5cQq6rJjMb+uT/jpFNb+DdwhDxndiciMkAym5r4bMEMNDg+CXOPJsDU3BgpicmqO3mopKUgVWkCE/7gNniysuXKK6EU/hf/E1+Fxq28Gw4c2C8NUjjc3d2RkJAgdRWO0NBQqU03Dw8PqY3eOSbmsEAiEqRKWYuaI7F6ihmmd5yME7yEmvQUEhIitenm6uoqtWXSZ/9D9DLkd3vM7fvQrFIXzJzdCYlLv8aEv24hCXJU6LcKs5x+QefJJ1QXZsrK9MbKRa5Y0HEijhXu1/lbIS0t6xWZmYyN1cfx87svKQgLCwusWrUKnp6eUknB+TRrhlu3bqmf8qY6TU0mfPhiu/ii7ubvB3p72bfGzH82YfHMSZg0ewX+mu+Hm/OX4BSDIxGR/ux88f2s1rg8uhu+UQVHkQKPbt5BkcruEG9dLLKtVBk2d0JwywCDI2XH8Ehvr8ebMbLPWCzdcRiHt8zDkA/bYtT2cGGXR0RE+rKr9wE8Ii7h2ftt0KlTJ1Xj374+bM9swF7L7hgz0Acenu3x9dAqOPfHfjyWxiPDxfBIbzEFEsOv4Pj+XdgVfAa3Y56/qIiIiHJnkX4Xx24VQblKFVGxorqpVMkFNsnnMPezcTjh3BGf962F0BkDMOmg5vIZMmQ855GIDBrPeaS3zcs455FejOc88pxHIiIiIsoHhkciIiIi0hvDIxERERHpjeGRiIiIiPSmCo+qB2zwKRtEREREWokXi+Skreytp8mD4qvQZIuHUjdrHomIiIhewGDCox4YHomIiIheQAyKcrk8IzBmbTc0DI9EREREL6AJj2JjZGTE8EhERERELyYGRkMNjRoMj0RERESkN4ZHIiIiItIbwyMRERER6Y3hkYiIiIj0xvAokhvD1MoaVmbGr36FmFeEbyd/eJcxEubDBmUquMAyDzMhE6/80nXeriyXfkRERET5YNjhUWaNqt1mYEPQERzasxv7Dp/A0XVDUMVY6v8qKOxQv2cHvGekhLycP2Ys+xFtnPRMfBZemLDjBLZ93xg2UlEGeTn0XHYQ++e2RXGpiIiIiKigMsKj6vEz4j/ZnkPzLrNEzeFLML99LAJ7+aJBgwaoX7cR2k8ORow0xKumuBWILo37488HefgQEkIRX70rWuQInBa1O+ED2yjEmRhJJURERER6kGKIrjRisDWP8vL+GNk+CvOHT8XOO3FIF8qUigSEh1zGg3RzuDbth/GzAxDwy0T09yoJdWWkKVwa9cP3cxciYPY4dK9ppyqFuSt8B07EvIAA/PJDf3iVFFarTNc0AKNinug2dg4CFs7AFy3KwET6eGQufhg2ti8aiJPNZfysZCaJuH27KNp9VDlL/2Lw6eqFiCv3s40jt66MtsLyzl8UgLkTesPLyURVLislvO93feDn9QlGz16IBVMHo5FT5pi6xiMiIiLDY7Dh0dHTC45XdiI4TCGVZGHmgTYtbRGyPgCL/olB0+lz0LO8HDZNJmDJyDI4t2IBArffhcxGCFFmVTF4yTIMcrmE1fMD8NcNIxS1kumcBqzqYfTyOWidsg9LAjYjosHHaGitfltlmgM8vCvCXEyyusbPyUiBq9v3w/ijzqhnJRW5fYxuZU9gW0gaMuojrepi1IqF6GpzBqsCArEzxhuTVkxFy2LC+6baw6NJe3T72A5Hly/BvrSWmDLlU5QWR85lPCIielfIYGRqBWsL48zvDRVd5WTIDDQ8ymFha4PU6GgkSiXZJJ7Agu/mYuflh4i+fxLHQx1QwdUSxlZWMEmOwcO7V3F67yqsDH4CO++eaJf+O76ZuB4nLp1H8JpF+OeWkP50TMPeuxMaRyzGmFlbcerCUaz+aQXOpWr5k9QxvjYp1zZizS1PdPEtKXRZorZ/CyRt3YiLiZnTdfDujGbRizByykYcP3caO+eNwbwbHujQxEnVX2bxCNtnB+JgyGlsCtyEe2Wqo6IQRl80HhERveWsqqL3/B0I3rMFW/Yext7f+qOa+HWjq5wMnoGGRwXioqJhWqoU7LXkNlmxxhi9Zge2rpyDsQNbwc1UAblMhqhd0zH5hAcmbzuAzbN7wcNGBofSLki9cQ0Pc1Rgap+GHPaOJZB6+zYiNMMnPcXTJKk9C13zoI1MFoHgP06hTOd2qOjkix6NwrFx8zUkKTRnK8hg71QSKXdDEZVxAsNT3L8XD+tituqNIDEKUfGqHlAmPkNcmjGM5HqMR0REbzWZnSuMDwxDyya+aNbIH4sUnTDi4zKQ6yhnDSQZ7Pf/o+N7caO8P7rWkY71ZpChdKt+aHhzEtq364IBI5fjstJU3SstHAdm9UFLn+5YkvIJfuhfAylRMTBzdYVDtjWpaxpKJDyLh5mzY+bV0TaOcJQOW2fKZR50iD2xGn8rP8DQLzug5MHVOBAhRGSlJvEpERsRlWM+beBS2gLRj6KEKK1LfscjIqK3hfL+NgRu/Bfx4ldGejiuXY2GqY0FZDrKWXFABrsNKMM2Y9qvD9Dq13VY8JU/mjduDL92/TBhSi+US02BVeWG8KpeE60+HwQfm1TVOKXbjsDw9l7wqOgMWyHLJSUk4WHQHzjiPBSzx3yCBsLwfn2HoV1ZGdKStU/j0eFtuOY+DJM+90Otmr4Y/F1bOMZmVOtJlDrH10apFGJc+k1sWXMPNX2LYNf6M0iQ+mk8ObgWBx2HYNaYjqhfozZaDZ+KoaUPY/X+x9IQ2uV3PCIieguZucO3sRWuX7ivupA0g65yMkgG/AMiDXfXDUW7nvMQYl0fHXt0Rzuv4ri3JwinN43H+N1WaDu4F2o92oMNW4NwLUGOZ3dCYVyvGwYP6QjnYxMwPPAq0p4ewo/dh2Fjan30HNwXPha3cSVSgbDN2qehfPQ3RvWdiSuuHTCgRz1Er1+JjcHHEQYZZCZROB98HQlG0Dl+NrJE3Ag+jcdydfmToGUIWLAAm8RzLgXy2MsIOvNYXUP49CimdB+KDcn10WtIXzQz3o4RvafiaKwwGaMonN1/Bc+ku/qI3ReCLuOZONlcxiMioneHzKYmPlswAw2OT8Lco3FSqe5yMlyysuXKKwUQG+Ef1aubmxsOHNgvDVI43N3dkZCQsz6sYEJDQ6U23Tw8PKQ2IqLnhYSESG26ubq6Sm2Z9Nn/EL0M+d0ec/s+NKvUBTNnd0Li0q8x4a9b0JyKr6ucnpfffUlBWFhYYNWqVfD09JRKCs7Hpxlu3boFmXidhdCIr+pG6BT+E1sMuOaRiIiIYOeL72e1xuXR3fBN1oCoq5wMHsMjERGRAbOr9wE8Ii7h2ftt0KlTJ1Xj374+3m+gvbyUtidWkEFheCQiIjJgFul3cexWEZSrVBEVK6qbSpVcUFyhvdyG9+oxeLKy5cpJ5zyKpzyqz3vkOY9EZCh4ziO9bV7GOY9UcO/aOY+6zncUu1nzSERERER6Y3gkIiIiIr0xPBIRERGR3hgeiYiIiEhvDI9EREREpDeGRyIiIiLSG8MjEREREemN93kkIoPG+zzS2ya/26Psu8tSG70MymlVpDbdeJ9HIiIiIjI4DI9EREREpDc5lFJbZgsRERERGaSseVBsF09pVHdpsOaRiIiIiPTG8EhEREREemN4FMmNYWplDSsz41e/QswrwreTP7zLGAnzYYMyFVxgmYeZkMnlkMukjpxkufR7CVTzkrV5Se+tuvJLas+g57qTOdVFx86tUNVWKiAiIqI8MezwKLNG1W4zsCHoCA7t2Y19h0/g6LohqGIs9X8VFHao37MD3jNSQl7OHzOW/Yg2TnqmLgsvTNhxAtu+bwwbqSiDvBx6LjuI/XPborhU9FKJ87L9KA4FByEoKAjBh/fhf584Sz21M7YtBzcnU6lLT8L7fL9jNXqXzb6O9F13SoUrWvVuihIKqSCHfM0TERGRATHg8GiJmsOXYH77WAT28kWDBg1Qv24jtJ8cjBhpiFdNcSsQXRr3x58P8nDxUkIo4qt3RYscocmidid8YBuFOBMjqeTlk8nu4PcBH6B169Zo1bwNvtgULvXRxhn+cxegd0UTqTsPxJrHHKsoX+vuOQWYJyIiIgNhsOFRXt4fI9tHYf7wqdh5Jw7pQplSkYDwkMt4kG4O16b9MH52AAJ+mYj+XiWhrow0hUujfvh+7kIEzB6H7jXtVKUwd4XvwImYFxCAX37oD6+SwmqV6ZoGYFTME93GzkHAwhn4okUZmEiXMclc/DBsbF80ECeby/hZyUwScft2UbT7qHKW/sXg09ULEVfuZxtHbl0ZbYXlnb8oAHMn9IaXkzokyUoJ7/tdH/h5fYLRsxdiwdTBaOSUOaau8bRJTYxHfLy6SVY4wXfIWAwXllG1oclLo8WwsfisSTX4De+P+rZylPvgS4wb1hylSwvzMKYPWjbpjh9m/4iOFa31Wn6NbOtOYFSsNrqNE9ZxwAwMb9sWvUZ/hTZumVOwrNwB3wrTXvjTUDRzEZZH5vLcPJUy7Hp5IiIirQz269HR0wuOV3YiOEzL8UszD7RpaYuQ9QFY9E8Mmk6fg57l5bBpMgFLRpbBuRULELj9LmQ2Qugwq4rBS5ZhkMslrJ4fgL9uGKGolUznNGBVD6OXz0HrlH1YErAZEQ0+RkNr9dsq0xzg4V0R5mKS1TV+TkYKXN2+H8YfdUY9K6nI7WN0K3sC20LSMs8NtKqLUSsWoqvNGawKCMTOGG9MWjEVLYsJ75tqD48m7dHtYzscXb4E+9JaYsqUT1FaHDmX8bSxdq2uutO9Z62aKG/7EIcPxsJ7xBA0tZPD8cMRGFbtNnYeCcODkAu4H5+GyJsXcPZKGBLEZW/YCh3alMSlA+cRWUTP5ZdkW3dW9fHt0llolbIfSwO2ILr+J+jSuh4cldJnrayM9v5FcXz5b9id6IuJ07rAVZ703DwlqocmIjIIxiZGsCui5ZxyifiUESKRgYZHOSxsbZAaHa09ICSewILv5mLn5YeIvn8Sx0MdUMHVEsZWVjBJjsHDu1dxeu8qrAx+AjvvnmiX/ju+mbgeJy6dR/CaRfjnlpBgdEzD3rsTGkcsxphZW3HqwlGs/mkFzqVq+YvUMb42Kdc2Ys0tT3TxLSl0WaK2fwskbd2Ii4mZ03Xw7oxm0YswcspGHD93GjvnjcG8Gx7o0MRJ1V9m8QjbZwfiYMhpbArchHtlqqOiEEZfNF52zvAbNApfffUVvh7ZF41LypF8aQmm7XBBn6FD8WUvS6ydsg6haZG4GnQK99PkiL1xANv3XUakkOtkNkk4/OscbPjnLwRdPqL38udk7/0pmkQHYtzP/+Dk+SNYOWMlhBydyTICO4VlDQ45g81LNuGucxVUsNA+T0RE7zxTc4zqVQmPR1fA1e8q40H/YqiX49TvYu+XwoMJZdBdqqQgw2ag4VGBuKhomJYqBXstuU1WrDFGr9mBrSvnYOzAVnAzVUAu/OSK2jUdk094YPK2A9g8uxc8bGRwKO2C1BvX8DBH0NA+DTnsHUsg9fZtRGiGT3qKp0lSexa65kEbmSwCwX+cQpnO7VDRyRc9GoVj4+ZrSFJozv+Twd6pJFLuhiIq45TAp7h/Lx7WxWzVG0FiFKLiVT2gTHyGuDRjGMn1GC+bMGwZ1xPdu3dH167DsPyamNgScG7Jr7havxNKbJqKP0PFqkEdEh4iLEa9YvKy/NkJ8+zoKKzjW3iiax0nRiIyTr1AyqQ4xKcbQW6gfwlERDLLIjC5cg+uk6/DadItTFI4YIZnkcwaSBNzDG9ohoQEqZsMnsF+ZT46vhc3yvuja52cP6NkKN2qHxrenIT27bpgwMjluKyUfoKlhePArD5o6dMdS1I+wQ/9ayAlKgZmrq5wyLYmdU1DiYRn8TBzdsy8OtrGEY7SYetMucyDDrEnVuNv5QcY+mUHlDy4GgcihIis1CQ+JWIjonLMpw1cSlsg+lGUEKV1yft4CkXOUjNU6zEI753didQuX6ONU+6bnHqW9Vh+nTlSicQ4YR0LATJjtVqVhCN/LRMRaaWMeoqpp5LwTNz/KlJxLiwd5uZyqC+3lKNOo5JoGPYMVww2MVBOBrspKMM2Y9qvD9Dq13VY8JU/mjduDL92/TBhSi+US02BVeWG8KpeE60+HwQfm1TVOKXbjsDw9l7wqOgMWyHLJCUk4WHQHzjiPBSzx3yCBsLwfn2HoV1ZGdKStU/j0eFtuOY+DJM+90Otmr4Y/F1bOMZmVOtJlDrH10YpnsuXfhNb1txDTd8i2LX+DHL+QHxycC0OOg7BrDEdUb9GbbQaPhVDSx/G6v2PpSG0y9N4SmOUb9YdvXr1UjXdfN1gX2soJn54D4tmTsesjdYYOLoN1BeGJyIq2gRudYRlbFQNjtm2xBcsf4736dLQJduG/FBcx+8Px2RhHdesIazjse1RSq8TGHObJyIiA2BihvaV5Th/LwXisSObciUQ4J6AsUeSVN1EIh1fjznDzLsoDXfXDUW7nvMQYl0fHXt0Rzuv4ri3JwinN43H+N1WaDu4F2o92oMNW4NwLUGOZ3dCYVyvGwYP6QjnYxMwPPAq0p4ewo/dh2Fjan30HNwXPha3cSVSgbDN2qehfPQ3RvWdiSuuHTCgRz1Er1+JjcHHEQYZZCZROB98HQnCzz1d42cjS8SN4NN4LB1zfRK0DAELFmCTeM6lQB57GUFnHqtrCJ8exZTuQ7EhuT56DemLZsbbMaL3VByNFSZjFIWz+6/gmXRXH7H7QtBlPBMnm8t42YjzEnQBSc6uKF26tKopVfI9+DQxxc4ZC3D0WSpu/PEzlv1XBR80KCqMEI39c3/GSae28G/gCCNjYdkPXFUtu0jn8gvvc/3AeSQ6lUGpUqVUjZOdabZ1p3y4RVjHP+GysI4/61UPkX9uQIgiBckpSsjkkTh34DJiNatSLizrgUuIVQXa7PMkN4Q/AyIiiczcAuN7l0aLm+EY/a8CMmsbLPjYHBv+isBx3fUX9M7K/iWYtUtWtmw5pVIoUor/in2Ef9zcyuPAgQPqIQqJu7s7Egr5hInQ0FCpTTcPDw+pjQyGiTkskIgEaWdnUXMkVk8xw/SOk3GCl1BTDiEhIVKbbq6urlJbJn32P0QvQ363R9l3l6W251k4OuCP7g5ICP4PfU8lI8HEDOP6lUbDu5HYEq1EurII/JuY4dSBp9h1MwbBr+uGyG8w5bQqUptu2j67grCwsMCqVatUdzkpLD4+Prh167awwQj/i/dVFht1R0Z3jqosoneAfWvM/GcTFs+chEmzV+Cv+X64OX8JTjE4EhE9z9IGi7vZ4vQft9FZDI5imZERUp8kINzKHHVLW6BBGVMUVRrDvawZnKUjRGS4GB7p3fN4M0b2GYulOw7j8JZ5GPJhW4zaHp7LhUFERIarmJst6j9LREwpOwyp76BqBlUF1m9+gL4bpGbHU4QapWLjzodYGymNSAaL4ZHeQQokhl/B8f27sCv4DG7H8GQdIiJdrNKTsfuRDJVLmqKq1Hg4FYG91F9Flo6TVxPB3EgihkciIiIDdvfyYwzZEp69+ScaZ7LeljcuDtP+foIdcVI3GTSGRyIiIiLSG8MjEREREemN4ZGIiIiI9MbwSERERER6Y3gkIiIiIr2pn8CmerKMuiWjlYiIiIgMijoHZkmCQmtml7ovax6JiIiISG8y17LlVA+1Vj3bWvxPCJXis62D+GxrIjIAfLY1vW3yuz3y+/Dlyu++pCBexrOtm6qebX0r4znW2Z9rLT3v+l0Pj0REBcXwSG8Sbo9vr3clPPKwNRERERHpjeGRiIiIiPTG8EhEREREemN4JCIiIiK9MTwSERERkd4YHomIiIhIbwyPRERERKS3t/o+j0RERESG6rXe5zHzmYWi7F1EREREZGDEOCg0z6VCoYCHrYmIiIhIbwyPRERERKQ3hkciIiIi0hvDIxERERHpjeGRiIiIiPTG8EhEREREemN4JCIiIiK9vfXhUSY3gpFRZiOXST3ktqjW4QuM+aYratpq6SYiKgwyY5hbWcPS1Ei8le5LJXP2QpeeH6G6nVRARPQavN3h0bIJph26iPNnz+DMmTM4e+EklnctJfQwxnv9l2D+J+b4LzwFRYxzdqtHzwtjOzdUcjaVuoiILFG172IEX7qMMyeO4+yVy/hnaOWXulNVKsvjo0F+cFRIBUREr8FbX/Mol9/Cb10aoWHDhvCq1xgD/3wglNqhSr2SuP5nIFau3IATkTm71ePqrxS6L16OgZWLSN1EZOiK1BiGX4bI8b+21VG1SlW4v98U44Ni+YwuInrnqcJjxqEW1V7vZR94KXypSXGIj49XNUlpjmj+1ZfwLamEo9+XmDyiEzpl624BZ2EcuV0NdPl+IX5fuRiTetSEvSZGW5RHy2EzEbhyJX6bMRSNnV3RetTn8LaTo8LHozF55AcoIzdFaZ8hmL54BX5fNAX96jhIIxORoTAtWgK28aG4eT8JCmHnqUh+iHOXwqCUWaB88yGYuuh3/P7bTHzexAniwQ5ZmdYY+eMgtGneD9OXrEDA2HZws3CAZ5+pWLp6OWYOrI+iwn5IPdxnaFG/HUb/Ku5jJqF7DTute2ad+zEiooLKJQ6+E7sam7K1UK9ePdSrWwcViibi3vnz+C9eidjQEJwOuY2b2br/Q7xVfYxbtxAfxW/Fr3O3IKHj/7C4bwUYmVfHl2vX4asy57Fs1lz8cUWO4tbJ+O/8WdyLT8OTG2dw6uJ9GPtOwx/jy+H0b3Pwv823IbMxkeaEiAzFsyMrsDKqAxavnwr/avYwksphXhPt29jh3KpfMO+vKDSfG4ABFYygTHVAread0MUnBVvmr8bNGuOwYNnP+KzoEQQs2A+L3vMxqXVR9XDNOqBfvyq4vupXLD3lgM9WBKKfW8Y7qOnaj0m9iYhelncgPLqg1Zfj8d1332HM2EFo5hiH6wcO4laiEZ5d34fNe0/hTLbuqzBu1getohZhwtKTuB92FuuWn4bzhz6o4tMf/orF+Hz0ahw5fwb7ls/DxusPcWnPMdxLlePpld3YsisETy2tUSQpCg9uX8LxHUsQuO+RNC9EZDCSLuCXTh/i6/1OGLb+OIIDeqCyhVCecASzvpiOv0PCERV6DIfvFsN75S3V45g+wNZ5K3Hs3G4sW3kWJR2u4Je523Dy6J9Yvj0KZd9zVtdSWsdi16Rp2HTiNIICx2JyUAl80Mw1W0VAUR37sdJv38EjInrLvAPh8QE2jvgEH3/8Mdq164fFl9Okcl1ksHdxhnUlYdiN67BmzRoEflEVKUnGcCpbGslXryA8XRpUh8it32Ps0ZqYffA09gUM4NXbRIYqJQxBv/RBk3qdsdp6GH6b6Af74s0w8e8jCN60CJO/aINKpgrIZVKiS45CVIK6NUU81SbqCZ6qdlnpSIxLgtJIqjdMCMeDGM3ZkwmIfJwIMxurLLWKuvdj5jx0TUQv2Tuxm0lXvCDtZaNEXEQk4q8uRDcfH/homi4LceFJDMzLlVedd5SrtDDsnuwPL8/2WJDSFT8NrQ1eh01kYIRAqKnkUzw9h5VLDqGIRzXUajcEja9/h+bN2qLr4EUIUeZj72DqAAexFlMkK4YK79kg4kEEMn8a696PXc3L7pCIKB/e/vCoNEGFlv0wYMAAVdO3ZaUXBrmHB9bhdMVRmDe2PerXqIVmPX/AxE/L4OGeFThY6msETOqKRrXqoNXgkfi0vLiKEhEVbYJKXk3R2Kcm6nwyFt/4N0HN91xgbwYkxSWB+2siw1L8w+lYNX8UurfxQ/N2A/D9KB/EHjyC0MQU2FQV9hW1aqPtiC/hZ5sqjaE/ZXp5dJowFH7CfujDkbMxquIJrN4TJvVV07UfIyJ62d7y8BiPK3tOI9GlLFxdXVVNmRKWwkIp8eT0AVx5plm8HN0R2zGiwwjst/0Qw0YNQzuXa9i8/wEQcwDffdwXf6R6o/9Xg9HC8iYuRog3VIvEzmmTcdS5I7o3ckL8zdsw8e6Dr0Z0gcuhUei34FKWGgEiMgTRJ9fj77sl0LhTH3RvVQHhi3rg0+kncXPdSHy9zQodvxyIug+3Y82mvbgcbwSZPAKnd13EM+nYs1HiNew/Hg71LRuVSLl3AidCU1RdstTT+HNzOloP/wIdShzE1x1HYVekWNn5BKf2XMRTcVemaz9GRPSSyVzLllNCKf4vNUKhm1t5BB04oB6ikLi7uyMhQTrZh4iItHPqhrUb62F5q+HYFSuVERFpYWFhgVWrVsHT01MqKbimPj64deuW8GNVPDVHpj5FJ6MROoX/3vKaRyIiIiJ6lRgeiYjeJEmn8Ou3y3GF58IQ0RuK4ZGI6E0SfQNHD53FfzzLh4jeUKrwmP1ZrHwyKxERERFpx5pHIiIiItIbwyMRERER6Y3hkYiIiIj0prrPo3h/x4x7PQr/ubm5vRX3eRTnV6FQ32KXiOhlkMvlqvubaSPu12rUqAFHR0ephIgou4cPH+L8+fO4evWqVFJ4Xtd9Ht/q8Jiaqn7sl7hzJyIqbJofpyYmJqrXrHx9ffHVV1+hWrVqUgkRkXYXL17EnDlzsG/fPqmkcDA85kNycjKKFCmiWiAiosIm7hNTUlJgavr8E/MXL16Mli1bSl1ERLnbtWsXBg4cKHUVDj5hJp8YHInoZclt/1K9enWpjYjoxd6lfQaP9xIR5QPPcySivHiX9hkMj0RERESkN4ZHIiIiItIbwyMRERER6Y3hkYiIiIgyKaUmm8wChkciIiIi0hvDIxERERHpjeGRiIiIiPTG8EhEREREemN4JCIiIiK9MTwSERERkd4YHomIiIhIbwyPRERERKQ3hkciIiIi0hvDIxERERHpTQiP6sfNZDx05rnH0RARERGRodH1hELWPBIRERGR3hgeiYiIiEhvDI9EREREpDeGRyIiokKXhuvzWsHFwRa2dkVRvsVMnE6UehG95WSuZcsqlUpA+kf16lbBDUEHDkiDFA53d3ckJCRIXYUjOTkZpqamUhcRUeHTtZ8JDQ2V2qhQRB/DjC8m4cATzSn6RnBo8AVmj2+OkjKp6KVLxfXAwfhy4wOpOys5jM0sYVvCFVVqe6NZ82aoXdZamEtdhPA41xe1vzqIOKHLtOZ4HD7yI2qbq/u+PtHYP3EgZh4X5yoPjGzgOWgOJrVxxiv7ON5Brq6uUlvhsLCwwKpVq+Dp6SmVFFxTHx/cunkLMpnwSQuN+KpuhE7xP7Gd4ZGISDeGx1cj7tBI1PebhcspUoFA7toLm04tx0fFpYKXLhnnJ3vDa/xpvLCSUGaBsi1GYMHi8figTBGpMKs3NTw+webuNdBhdVgeb65ij1a/ncW2/mV5yLIA3pXwyG2AiIhes0Rc3x+M21JwFL+kRIoHR7HrQoy6402jTMDdXZPRwbc//ribJhW+JWRy1h5SgTA8EhHR65VyG8H7b6hr+2x98NXolupD1Wn3cGjvFcSL5a+cDC4dZmNb0CEcOiQ0B4Oxd+s6LJ0+CD6uFhnhK/nmWnw34R88zFs13mtki4ZjNiBYXKZcmyCsHVkHNtJYMHVB5fK2DA2kYrDbQUpKSr4aMizatgF9GiLSX/p/h7HrUqyq3aJSU7Tv0ArV7MSuZNwK2o9/k1S9XjEZjO0qo0ETb3h7C02jxvD98FP0+XYh9l8+itktSkhfoGm4F7QZJyNVHW+BIijuXk+9TLk09Rz/xZqVZ6D+VExQocdUjPaxV3URGfSPiIedN+apIcOkbVvIrSGivFAi/PhOnI8W203g2rAJPKo0QdP3LFV9E67tQ9CdVFV7bhQJj3D7+g3cvHUbt+/cxX9hjxH1LBGpipdQJWhZHT2/bIsy0jeoIvoubkfqe+hagaQnt3D+6D7s2LEHB09dwf3Y1Beef6hMS0J8fHyemoTEVOHd8iE9FH9+9wO2P1KPbVy2M6ZP/PAVXrhEbzrDroE2s81bQ4ZJ27aQW0NEeRCBs7vPIkJMT3In1GlWBTbmFdDEuxxUl6E8DcGuI/dfGIISzv2Mj6q9h4oV3OBWvhzKuJREUVsrWNo5w93bH98tO4IHSYUXJC1KlEZRzXVUFkVRwlr3dddqSijiruL3gXXg4lwBNRv64YMPWqBJ3Soo41AUlT74DhuuxekIkcm4MNMXzrbWsLbWs7GxRxnfqTiR5+tUFXjw1xiM3fwA6WKnUSl0nDoZHzsbdlyg7KSt4SX8MjNAqiuTcpLJIc/rrzWLymjZszualjWWCl5M5uyFLj0/QnXxUI+RLcq9VxqW/Ft/c8mMYW5lDUtTI/1OXM/ymWb7rInedtHnseNYmDocFq0JvxpFhRZruPvUhbMqj0Xj3M4TLzynMP7hfUTlrPxTKpD67CGuHVmP6X0boeL7H+Pn49GF8I2Xiv9OH8dd6ZJsy3KeeL9o7n/JMmU4Ds8cii9/O/vcfCrTn+Hmjunwr++Db3Y90h6U01ORmq6+I4pejSIVz57l/caSykfb8P2Y9binmkc5nD6ajGmflsnllkT07hP/YoRG/b8K40VhKeGP5ccD0aGY1K1SFv02BGNmM2upW08KO3j374z3jfQ/4KBUlsdHg/zgKIxi5NYDv677GR1deIzhzWOJqn0XI/jSZZw5cRxnr1zGP0Mrq/4Qje3cUMlZ+62nsn6mSmU5tB2s/qxfttzmiagwPLu0C4dC1WnKtmoz1HVS77ccqvvBs5jYrsSTUztxJtdzCtORgOKoUa8uPGtUQ9X3K6NiuVIobmMOk4xf70ok3vkbozv0QMCVZKnsBZTpEPJadsoEhO6eis/G74Zqliyro9/3/eDxoj8TZSTOH76Mp8bF8L6fPwZ9NwmTxwxBpyZusNZU4zw9jTn9h+PP/1R1ftlYlKmPFq1bomXLXJpmdVFGfbRfxchY/woIFWUEdk38Bqtuqk8TkJX8ABN/6opyeZwMvfsYHl8yufzV/15LvzEfbWt0xu//5dzr0etWpMYw/DJEjv+1rY6qVarC/f2mGB8UK3ytlUL3xcsxsLK2+8W9rs8093kiKrgk3Aw+jDuqa8zMUaGxF8pIQUVWsg6aVVOfBqIIP/aCW/YYoVzHedh+7AROnwvBxctXceP2f3gcE4vYRxfx97QuqGKjDpHp4TsxbfLfCHvhn5IQWg9MQic/X/j6qhufBh5wcywBt5Y/4MATITeW9cPXyzfgp9aOL/wyTQr5G3/eq4VpQVdwYc+fWDh1HMZOWYA/gi7i9Mo+cJfu/5h+fytmBZ4RwnBWpqjUcx42b9+JnTu1Nzs2zEVnxyd4qLk03bYBRs0fiQYWUrceog9Mxshl16CK1rJiaDH+J/SsaKLqR5QVw+MrIivTGiN/HITWTbpiYsAKLJ/7JXycM3/OGRevhz6TFmPlivn49sNywq4ic88mt6uBLt8vxO8rF2NSj5qwFz41WWlhepMGoY1fP/y0aCa6lM/8KFX9Jg9GI/sXv6+2adPLY1q0BGzjQ3HzfhIUwmesSH6Ic5eN0GrU5/C2k6PCx6MxeeQHcHXN/vl2bdIm4zPNzgFeA37Aj8N8IVbY6Po85Tbvo8OouVi2aiUWTxuIxs7qLwTTqp0xbkx7VJQ2iSLun2LsuE/hblIarXPMk+biAKJCk3IHwfuuqoOSiSsaNqkoREiJcSk0aFoJquyTGoqDuy+rbradJzJjmBWrgrajV2JHYDeozwRKx/2gv3D0sWqIXCiRcPck9u/fn9EEHb+Ie8b1MGjKL1j29zFcOrcdMz+pADNpjFwpbdH421n4omFxZO6BReao1HkSfviolPSFnIAr27bjal6uMFdG4eC0XvhizR2ocniR8ui+cA3GNczDuS1PD2PGqEBclt7XwWcMZvZ9X/guInoevw5eEWWqA2r5dUKfTx0QvGghdqa2xew53eAq/hi2bojv1wegXcoOLPhlPR438kdjzZFuq/oYt24hPorfil/nbkFCx/9hcd8KkKcVRa0mbdG5vRMu7D6DCKXm0IzwXmI/n8qwSH/B++qYNs9teXmeHVmBlVEdsHj9VPhXs5fWdSL+O38W9+LT8OTGGZy6eB/xqdk/3ydit/SZZrJEza+W4pe2cfh72T6EW+r4PK0bYPyGlehjewJL5i7A1mgfzNo4F22KC1+jRuXQzMcNJtJvFYXcFT6+FVBEyzwV7vOhiITtT7xFT4j6ZjByxzpoVjXrBWdmqNDYG2VVFd/JuBUchJv5vmWPEUo36QAv6XJhZdQ1nA/N34Om0x8fxfKp32FI55bwbvQBBv68DTfj9DgiYF8Xn35YSXsYk7vAp4sPnKXdeGLoWVzOeEzjiyTh6uK+6DbjpPq2OrKiaPLDWizoUhb61xnG4cScrzH/rFRtadsI3/z8Gaq99qfh0JuK4fEVkpmHY8vU+dh/7jj+XPAHQst6orIQEos27QG/J/Px5ZRNOH42GMt+WIzTaeq9SNFmfdAqahEmLD2J+2FnsW75aTh/6IPSQm+ZbRKCfp6KNRv/wJ47z58jo6HzfXOZNr0kSRfwS6cP8fV+JwxbfxzBAT1Q2TwCl/Ycw71UOZ5e2Y0tu0JUV57m+vkK/V27/g8Lmp/G8B4/43Sc7s/Tw6c3WkX/giHj1+Lw6eP4e8ZXmHGtFjr7OUsT00KpZZ5ewTmWZEiUeHRqF86pbtEjbL81fFFTvFYmC+v3fVDPSaqPu7YPB++++JY9SE9ExN0QHNu3DZv+XIu1G/7B7uDjOBsuRwk7KU6lxSIi5kXnPcrh2m0R9h85hmPHpOb4EezbvBy//DAQvqWVeHhpLwJHtYVH9U5YdDn3n1dy29IoY6/7p7mVsyuKac4QSXqKSOGH24sp8HD7N+g0YgseqAY3Q+V+gVj9Td3Mm3vrIeHsr/h6zkmpZtca9Uf8jM9r5uF4NxkchsfCokhHOoxhnHWNyuQwkiuQlip96yZFIEI67qJMjEVsurHQXwZ7Z0ck3/wXTzRfzknRiFb9KBb6uTjDulI/LN64DmvWrEHgF1WRkmQMczHgJTzAf1F6fKPrel9d0+ZW8XKlhCHolz5oUq8zVlsPw28/+EHrwaXcPl+jOujdyxyrvpmNY0/FAt2fZ4lSJZF06w4iMyoyYnDvzjPYFLdjLTO9RpE4s/MU1BVsNqjiUwclc+57rKugSa0S6jsSSLfs0fUzOT3qLFZ89QHed7RHiXLV4eXXBh06d0XXTz9Cy6YN4FnjY8zNeHC2Egp97v9oWho1vOqjfn2pqecFnw87od/IOfjn8g3s/rYOrIRpJd5ejy87jcaeXC7qMbFzRNFcjm8bW9rCUlNVqExTXVn9IgkX5qFX7wW4qMqtchRvPgVr534Ml7z8YSddxKKRM3FEXQEMS8/h+PnLusJyEenGmFBY4u7jfqobqrlludTNtgLcS0Tg9v3cfpEqkRAbB/NSzsg4YGPjAhfVYWsl4iIiEX91Ibr5+MBH03RZiKuaTKHH/k+7XKatuxKTCkp8uLzUqnh6DiuXHEKR6tXgqOsvUdfnqziFBbPuocvyxejznnggTPfnee5hJMzLl0PRjPewRemyloh6GIX01FSkm9nAWnPOo31RWLLmmV6FmPPYqblFD+JxampzuJUqhVJZm/KNMGpPhPRnEIWzO0/isZa/ifiQ/+HTWg3Qe+4OXI1Izv9uMS+MSqDZmNkYUl2dCJMur8HczXe032ZHlOVvX5vUZ1F4psm2pnYoZpX9zMic0u7/heH+o7FbqnWw9Pgcy3//AjWyfAW9WAquLR2FqUFS9a+5Bwb9PBIN81JtSQaJ4bGwJJ3H+vUx6DAnAN92aolmLbtgzILv4Xl2GbbcyX1XFh60GVeqjMLPX7dG3dot8eWkDnCOVY/z8MA6nK44CvPGtkf9GrXQrOcPmPhpGVW/gnqZ0ybtin84Havmj0L3Nn5o3m4Avh/lg9iDR3BPkYioaBNU8mqKxj41M859yk3E7tHo+XMyPl8dgK7lTXR+no/3/479jiOw8Mcu8Pasj49GzcHXrgewdNdDpD04h4tF2mDYZ36oVacjvhvcAPI0zfaaY564t6BCFHd5T8YteoB0xEeE4cGDB881T+I0wyjx+PRunIuSOjWeHcW0vt9gU6g6ecmty6Fx7x8RuHEr9h46jlMnT+DYkWDs3vQzPi1byFcO21RGQ49iUiiMxsVDl4V/80OBx5fO474UHuU2TnDU3L9Hm6fHMa1LPyy9oT70buTUBjPX/oQPHPN2LCH11kp8M3G3+gbtMMP7/Wbiu6a8gSy9GL8OCk0yLs7rjA5TzqF48x7o17UhiuweiU++2qK6ua1MHoFTuy7imfS3LTMSfkXvCUGs0K0M34DPO/+Ii2U74/MB3ohaFYg1ew/jgfjxRGzHiA4jsN/2QwwbNQztXK5h8/4HkJlE4szuy4iXfpzKZE9was9FPBVGUfXbe0XVL7f31TVtenmiT67H33dLoHGnPujeqgLCF/XAp9NPIgGR2DltMo46d0T3Rk6Q5/x8s36msgic3i1+1mm488dQ9Jp5E+9374X66To+z5hgjO/QB2uSvTFgxGA0L7IZgz75HgfFw91P9+F74QvjdtVe+KJHeZxe+Rv+DrqlvmIzxzzJcv8NRJQHSfj3QBBu6Xm7RQ3FgyPYeUF1nkaG6GMr8ecF9YUesqK++CnoAoKXjUe/Dh/C17seatepi/pejdG8mSec9bosOi8USEvT1DUqkPT0KfL1EBvFfwjacloKnjIUq9UMNXQ9RjrlJn7/rDMmHY5R17Ba1cJXK5dh0Pt5vLpFfATh6O+xXarKLVK5D2Z93xw5Tjsl0krmWrasUn1HeqFLujO9WwU3BB04oB6ikLi7uyMhoXCv10xOToapaf5uJJCSojk+kDdFivCed4aE2wnp2s+EhoZKbZRnqdfwS4t6+DIoVvgWcsLHAdux6NNyMNVanRGJA1+3xqdLbiANZqg+ej+OTGsA9dHZNNyY1xy1vwjCM6GrWJtlOL2lN1y1TCfp/FT4eI/FcTFnGpXDgK1nsLhVzoSWjPOTveE1/jQShR/vrn234tyS1tCV4xCxE4O8PsKif8ULeYTh+/yNM0s/lAJYGq7P9UXtrw6qLkQxrTkeh4/8iNpaMl70/hFo0mYOLornusuc8emak/ijs8vztTvKCOwf3RofzzitWl4Yu+LT3/ZgZe+KebyljgIP1veAV5c1uCeepmTihr4bjuC3j0qyRuklc3V1ldoKh4WFBVatWgVPT0+ppOCa+vjg1s1bUD01TzzdQvUinnah7paLjTSswRG/3PPTkGHRtg3o0xCRbun3j2DXRekKDfvq+KB5NZSwt4WtrbamPLw+rA1H1bHhJNwMylpjKYORqUnGhV9pQtDXesq24jGCV/yF66nqA8z6U+o8f1IRexFLhg/FMlVwFNmicgN37Re/6aRE7Ln56Ntnvjo4Ciw9+2FEGy3BUYizlxf2RvdZUnCU2aHhuLX4Lc/BUXjXh/9g/Oh16uAIE5TvPA0/fMDgSPoR/yYMtuaRiEgfrHksbEqErf0Unt02qk7psfL6CUcPfINqufzmUtxbgXaevbE1QuiwbYZfT+7E0Erq8xdjg75A3ebzcF08NbKIGzrNXYtf+9dBcbG3MhXR/+5H4Pjh+HG7GboNLIe/Zm/BE3lRNBgwBoM/qIH3KlRC5UqlYKM6RSR7zWOJpoPxxQdZa0QVSIp+gFuXT+PggRO49VRzPiYgL9UZa4+vhr+LZuAcNY81vsXevRNR10aG9KRYPL51GtuWzMRPSw7gXqI6osocmmLqrr8xurbmRr8aSkTsGo6mHeZDfUcgIzg2Ho7pE3ugul0ugVhmjpKVKsFJdXsOjRjsG9YAH8y/pjo9ReZQFz0+a4sqDuYwekG2NnVqgk5da6O41E159y7UPKraGR6JiHRjeCxsEfi7Vy20//0/IYqZwuPb/Tg63Us6DK1D6lXM9auHrw6qDk7jw6Wn8HefsuqasriTmNSyOSYclWoyhS84Yws7FLUtgrS4p4iJS1I9n9q24Sgs7PwAo4avwQN1VlOR2zXH/NM7MdhNnFrW8JgHppXQZ/VeLO5YOsvTY7KHR/FLVy4Xb98mhMe0NOS8U5CJYzN8t2o1Jvg6armFVj7ny6wmxh88gh/rZD1W/gSbu9dAh9VhOmtVtZOhWNtlOLulF+8FXADvSnhkLTUREb06MSHYc+KhEBwF4iMIm7nnHhxFJmXRsKnm0YXROL/7FB5pko9VXYxcOA2fVLSSvtCUSEuIxqPwR4h8JgZHGUxdO2BawFj4lrN87rxKharmJKs8JCOZCYp6dMLPuw/mCI6ZMqYmvI8iPR2pqdmDo8zUEXV7zsKuMzswUWtw1MjDfL2IKgjkVd6iJr3bWPNIRJQL1jwWrmeXN2LJpkt4Kp5vJ3eEz2cD0bjEi6NMzNnV+G3rTSQI31VySxc07dIPjVyyjJfyCCfWBmDl/vO4duMOHieZoWjZGvDt0B29OjZEaQsZ4i+twI+z9yFcaQoLSwtYmJnBsuj7aDOgB+oVU9c8hu4MxO8nItThVhvxedlWtiheqjJq1KuDqmVsUUTr7KcjbPcczFh/DqH/heFx1FPEJSQj3cQaRYuXgFP56mjSsjWaN62DCvYvuoVQOsL3LcJvR8Tj9nlRDA36DURzl6yx9inOr/0Nf9+Iz3PNo5ljU3Qf2BhZVzvlDQ9b5xHDIxG9jRgeiaiw8LA1ERERERkchkciIiIi0hvDIxERERHpjeGRiIiIiPTG8EhEREREemN4JCIiIiK9MTwSERERUSaZ9KoidYh36pG6GB6JiIiISG8Mj0RERESkN4ZHIiIiItIbwyMRERER6Y3hkYiIiIj0xvBIRERERHpjeCQiIiIivTE8EhEREZHeGB6JiIiISG8Mj0RERESktyzhUSm9EhEREZHB0hYJhTKxWGxY80hEREREemN4JCLKh4cPH0ptREQv9i7tM9768KhU8nA7Eb0cue1fLly4ILUREb3Yu7TPkLmWLSvsH5XqnaT4v/DqVsENQQcOSIMUDnd3dyQkJEhdhSM1NVX1KpezApWICp9CoVC9mpiYqF6z8vX1xVdffYVq1apJJURE2l28eBFz5szBvn37pJLCYWFhgVWrVsHT01MqKbimPj64dfMWZDKZkBJlqldVq/BfRvfbHB7FedXs3ImIXgbxx6lqJ6qFuF+rUaMGHB0dpRIiNdV3qkDXtsP+r7a/2J112FfZLR6uPn/+PK5evarqLkwMj0RERESkt9cVHnm8l4iIiIj0xvBIRERERHpjeCQiIiIivTE8EhEREZHeslwwI3SJr8J/bm68YMbQiNtAenq61EVE9PYwMjJSncSfF9zn5V9u65vrNf/ysx2/mgtmxBfxchlNt9AwPJIoOTkZxYsXh4ODA++bSURvBfFWbVFRUXjy5AlMTU2lUv1wn5d3+qxvrte8K8h2zPBIr1ViYiJatGih2nDT0tKkUiKiN5exsTFSUlKwa9cumJubS6X64T4v7/RZ31yveVeQ7ZjhkV4r8Q++Q4cOiI6O5iEHInoriIf57O3t8ddff+UrPHKflzf6rG+u17wryHb8usIj65Qpg/gjQvylqP4xwYYNGzZvdqPZX+VX1mmweXGj7/rOOiybFzcF3Y5fB4ZHIiIiItIbwyNlyPlriA0bNmzehia/tE2LzYubF9E2DpsXN28ThkfKRtsGzYYNGzZvalNQ2qbJRnejL23jstHdvG3e7PAok0Muk9o1hDLx5M1MMqFIKJO6MhjZotx7pWH5//buBD6Gu/8D+GdzB5E4EhIqB5KoI+4jEoSom6oWaejjqB5ar6cPTT0PVVoeffr89dAKqp6qEtU4nuqDp45HgpBQcYsjIkgQIve9kex/ZnYSm1iy2U2zOT5v+zUzv9/cO5n57uzMrLYlfFadIRRmsG5kg4aWpk/OT20mXSArtxMRUZVSmJjDukEDWJk9uaNV36iggftjicLMCg0aWMPctLpWhhla9RyBEV4Odev4rqeamzwqXDAzNAobJjnJBYIGPlh+/BSCRzaTC4S303MO9pxYhZFN5QKZadup+CZ0BSa0Ur/NZnZt4e6kfn5S+TrDNUSnGetw+OIlRJ+IwumYS/jPu56VXrma82gM2j4NqUzbIuDzTVg5rSMstdUzGAyGkUNf2sZVrWHWAt6vL8f6kM34fv2/sDFkE75+fxTaWsv1ll0xe+1nGCccBqVum+54a+W3WDisFUw1x1PNURFtw1RVmDn0xbRP1iEkZAO+W/8Dftq6AfMH2Gntt2pDAdvOwzDQzVJLXdVEbVJzk0dVAo4dSYaHbzeU5IUWnoPQqSgLrv06CumammPvfmhyKQynUuUCWdG1VRjTdTJ+TBDfkNaYsu4HvOFpoaXOcBZd52DlbBOsHuOFTh07ocPzg7AoPBOVG3vZeawprDwGoa8qEYW9B6NTyUonIvqDtGnTBgMHDtQaLi4ucl91QRP0e2cJZjx3Fl/OnoKAgAAETPsbfnk0Egvnj0JrU7k3hQKm4sO2LVww/oO34Bb5BT7/byLq4xMUFfaDEfSPN9Dm7JeYHRiAwFcnI+D1Jdh1s1Dug6qLqZ2d3RK5vZT4ZPhp06bJXVUjODgYhYWVeYNVyFA6I2CWJ65sPYCbhabweHkOBhQmwqanHaJ/OoKkomYYNHs2XI59jR9T+mFekD+amnph5vxX4ZBlieGz/GF6Ngkd330Hwzu6oHXz1kJyZ4W4O+0wK2goTM/8jgSHEXh/nj9si90x9W/vY5q/CzLOn8LNrGJpLszshU85Cz7C3GkvoL1JAzw/+UU434nClVR1vahBx5fwpncSfgw+hLtFwpwXZSMp1x1/+uvr6JRxCheS1MvdzPdtLHi5Ga5GJcLO700sWPAuXhvdC00fJKPlqzPLzOP1qFhk2XbF5PmL8cHr49C9USLOXkxCwXPq+W1q5oUZC9/Dy51VuBydDLcpi/D3oKnwaZ6E02cSkVfJvFh8VICHhwdycnLkElFDeE2cgrYxPyPSbhh6Zh1FxO18qUbR0lv4w+2FRsVtMPy1QIzq1RLZ1y/jrsodo14bB9esGFxPUe/ebLtOwJ8GN8ati4nIqV0froiomtna2sLLywvdunWTksWSEN28eRPp6elSewnxOXdXr16Fubm5XKIb7fu86mPWbgLen6zClsVrcTK1SHrGcnFhBm6cTYTTxOnokLAfJ5Obo/fILsgK+x22U/+KUZkbsfT7M8g04n60ovX9x63XRug58y/wvv4VFodcQlaR+mxdUX4aktOVMLX1wJCJryFwwlD0djHDnSs3kF5ojrYvTMd4Dys06DkB0yYMhqf5HVyKS4P6qGwCW89hCJz2Ksb694IrEnHpZgaKYIGWvV7G6zMn4oVuLVFw8yoSswH77i/AK/84DsZkVPLkUMX03Y7F/sXnajo5aXxLa6AfNm5EWmqadMlEyWUSteo5j4VXwxBR3Bs+npbCDLdB/8G2OLftJ0SaeWNgWzNhW+oM307piIhMQPGjZug+cAwmj3fEuf3RSC4Uuv080aAoDwlnT+N2ziMkX4vG7xeEBKa0Tkj0Cpuiu/8kTH+lKQ5/uwa/FY7BF18Gwln8RtvGB4tDV2OMch9Wr9yBVJ9XMX1MfzipHieOoqxjG7Ep9SWs27YcEzs3gfSBMfsyrip8MXWYp7AZipqiz+QAuN2/hNwhn2LrIlec+u5LrP7lBhSNHz0xj7mN+uLD0DUYm7Mb33y1C7kTVmPdjHYwEed36CQE+Cmxa1UIrnf9EMEbVuDNZsewVkheG0xbhaUjHn+tXxnlT6GrGnfFEC9h/UacQMThe2g/pCeayXXFhTZw7+WP0UNscPrf2xH5yAfvvTcMLXLjcUvhhRF9nWEm9WuDjkNfQKuUOCQXa4ybwWAwtMStW7cQFhaGuLg4ec8ExMfHS2ViU9sw+tI2ruqKpu4d0OhaFM6nlqvLvY5TMUVwdbUXz6EIoUCbF4Mw1WYv/rk2Eqk1YD9aEW3DGBzmzujWGTgTcQV5Wuqb9xkKz8xj+HnjTlxoNgF/e70nGgqzatm6C7oN8UPHlDBs3xuH1q8txPSuVtIwTfrPxefzvZF7fDt+2nkCGQ1sYCIM4+A/H0unOiBmZwj+c6MNZi59Ez2EkQmDiAtXOs2qjhqlgqv6anTyiLyLOHRcgd7ebjBz9Iaf3WkciT6Nw6es0c+7DRp5+KB7QQSO3lA/xV5hm4/wFcuxZcdWHIiXn2yveoiLByJxu9AEGTH7sWvfeTws9x4prO9h1/JVOHQmCj8Hb8Utlx7wtAGaDQqEf+pqzFu2A5HR4Vj/8XeI1vbA/PxzWDlpFOYdcsScbVE4vHYqPBvkInrnAZgMHw0vK2EaDoPwUsfL+HlfIkwb2cAiPxV3blxE1H//hfUHLz8xj6pB0zE89Vt89P1JJN49jdAfTsFplB+eE99QyzvY/fUmRJ7Zjw2bTqNF0xis/GoPTh7/GT/sTYWLhxOE1NpgzXsNRvvEcJxIKkbyyXDEuwyBt9PjLUph9RCHN2zDqasXcWDbAdxz9IRLg3xcDjsJk34+aC9kzYomPeDnFo/9UQ+q/JMaEdVNt2/fRnh4uHSmUYyS9rpDAUtrKzzKyYZSLnmsEHk5SpiYm6kP0CoLPOfeElnXYiF/mVM/WdigsXkOMrO0r4Skfd/gm1/P4X52FuLPXYeJizPsxMOVSliLl/6N7/edxaUTu7AzUglXt+ZQmDhj6MseuLDqM2w5dglXLhzBjr0XkWfqCv+xrXF2cyii7z1EfFgo9md0gbeHcCCnUjU7eUQ2zodfQnPfvujWZwAcLoTjfE4Gzhy+DidfX/T36Y6iY+G4VvLXl3sHCRpfJ+ss/yEeZqtbVXmZyCwyg6mJAk2cHFEQew33S0aZn470PLm9POVdhK+cjoF9JiPEZg6++9gfDYUNdmeGH17sYQvnYS+i9cmfEPYQSNm9GAuPd8MXR07hf2tnoZutPI5SwrRbOcHGfSbW7QjFli1bsP7PnaDMN4O1+MdQkIpU+ZcelTk5yElNRob091SEvOx8qExLLpapnDKfgtASffw6oGGbCVi6Zg1W//0VuFm2hZ9vG+GTmfwpqSAD6bnq9uL8bOQUmcJEoULh9TCEZ/fAQM+GaNF3IBwu7UN0msa4GQwGo4IQz0AeOnRIiqedcSwJfWkbV/VEMbJS02HR0hE2wt62bF1DODhaIyMlHY+EbpjkI/L7jUgd8SHmDnYo3f8aMyqibRiDoyANaQV2cHTQdsOKGZxHLsLaDd/g4/emYnQXe+mrVaECKkURctMzoZT6UyInSzhGmgjHSKsWcLJJQdztLI3xCGHZHC1sbNBzxhIsXboUyz8LwhCbXCisxO8QxWXX6LeKozap4cmjkGidCkfsc34IGOGOhKNnkCaUJf9+BAku/hjv2wSXI2JQ5sqKKlv/KuRm5cDa0RGN5RI0coRTI7ldk3QtgFpxxhls+tdRWHTpLKRf17E79Da6jhqHcaOb49i2E8gSe3p0F/uXTYR3j/EIVr6Kz97tibL3WKuQ/TAFOZfXINDPD34lEbAGl/XIjfVh6uyLIY7R+HbxJ1i+fLk61p+E7cDBaFfRPT2qBBw5mAR3n4EY6GuHcwcvln2PiIh0UHLmsS5KPXcMca2GY2znsnciWrj5Y7hbAo6dTpFLhONKcji+/uwgms9ajFldbeTSekYZj8gT+eg+2hcty2cu1l0wdnxj/PbXNzBn/idYG/EQFT7BR5mOdGVTtGpR7rekhfK0vCxErfoz3nrrLSnemDUHX0VkyD2QqMYnj7h/HP+Ld8OAzg9wOOq+uuzecYQnt0NvxzgcPi2mkxXJQ2qaOdy9B2GAXzdofPP6TPfCf0FM5/n4fN5w9OoxDO/9fTLaaDnzaD/qH9i8KghTRvtj6LhZWBzkh8wjx3BbSPQS9+3E7S6BGKb4DdvPqAd2nrAQH0wciG4erdDECsjPzhfPGZaZR5PDoTjVPghfLxyPvl27Y/BrS/DxK22k4f8omp+A2vr6ouHZcJy4lSidARDj2tHfcNK8P4Z0EK8XEVPcx/2L3ZrjuB95CEnthqMvjuPgVeGTXml/DAaDUbWhL23jqrZIPoS1GxLh/eHnWBDojz49+mDwxHn4v2UjkRmyFgcfFKv7E+azuLgI2TGbsCz4JvrOX4CXXMyfHF81RkW0DWN45OHCT2sR0Xw6/vnZHLw0qBd69PLFqGnz8Ka3JQrggM59usCjy3BMG+sBRbF4kBKHKzc/Jf+Usdi/5wH6v/c+JvbriA5dhiBgTCdYKuMQHpaJ/m+/gzE9OsCjow8C5kxCZwthGHHRNcdVxVGb1PzkEXcQsXU3fvt1C47ckVdu8S0cDd2DPdtDEfVQXaQwT0H0/kvIkS/2k7oPxsjdKfjt02U47jQBU3wdYaJRpzB5iN/3XUCW/E2vwjQVpw+cR6bQrbq7De9M+hjnXQIw500fpPy4BWeLlShQln2T005uw683HTBg0nRMGd4O976dilf+cRLSN8spEdiT0AjZe3/FFflSjcy4GzD3mY6/zA1Aq6NBmBl8EY/KzaMieS/mvjQXh2xHYU7QHIxrdQW/HLojze8pjfk1zbuCQ1H3oD4hqYLy9gkh4XvyKprKcrO8iP+GXS57xjD/MvaHRqKwjSsamaQjJvI6cuUtSGGSgSsnYpFTskWln0PEfWvkHTuMm/X5Oh0iIq2KcG//MrwdtBlxdr0wctwI9LZPxLYFb+PjkkfxKPIRH3UOydJ3Wyo8PLISyzbEwmHoSHSujycgs8/iu7nvYkVYDlx9x2D8aF+0fXQOh6NPYOOyH5HoPhaThtgievcvOHI2STguqlCQcA4xGjc6FN65gMvJYk0REn5djKB11+HkPwmTRrZD9o1EKFGIuJ8/wkfb0/H8uEAEju2CwqjDuFqgQr4wrksPtN34UP8onF1chIRXzHqFLrEp/Gvbtq2QeYep+6giHTp0QG6ufKFebWHeAA2FFDBHfsJQw54fYteX1lg8bCGO6bgoCqdJ+GHrEPz75TfwywO5sAbKy8vDyJEjkZycLJcYRmH/ApZ82hvhHyxDWLlncBIRVRV7e3vs3bsX1tblvn6sQFXv8+qLitY316t+9N2OxUf8bN68GT169JBLDDfIz0962sHjR/OIDbGrpLuGP6rH6JqNRXD4AYQEr8CKtTuwf8MIXF0RjEidEsdWGLvwa3y/YQ6sNn+JvTU4cSyhefpc/7DHgBlB+GjJJFjs3YyjKdr6YTAYjKoLfWkbF6PiqIi2YRgVR23C5PFZkkIx+5W5WPNrOMK3/xN/GjAI7+y6K39FXJEMXAjbjR/njceUdZe1PI6hrspG7Kkj2PPFPHy4I15+ECsRERHVFUwen6kYuXcvIGLfbuw+eALX0yqTCmUj/vh+hF1MrlUJlImJidZPRLpHDu6cjcTJ2FQUaq1nMBiMqglxf2Uow/d59Scqs765XnWPqtiOqxuveSSJeJ2Kj4+P9FNH4s9LERHVdGZmZtLP3kZEROh1zSP3eZWjy/rmeq08Q7ZjY13zyOSRJAUFBWjSpIkU0sNViYhqOPHYlZaWJoWlZdmn5VaE+7zK02V9c71WniHb8R+dPErvoZgsig0mj1SeuA0UFfERBERU+5iamqoPcpXAfZ7+nrW+uV71p892zOSRiIiIiHRmrOSRN8wQERERkc6YPBIRERGRzpg8EhEREZHOqjV5rOyFoERERET0JGPmVNV2w8yMGTOkZxgVF+v2+yxEREREpJ34cHEvLy8sWrQIXbp0kUsNV6Putk5ISMD27dv5Y+lEREREBhLvtBbvsn7++efh7OwslxquRiWPIqVSiczMTOlJ6kRERESkP/GXfBo3bgwLCwu5xHA1LnkkIiIiopqLz3kkIiIioiolJI9CJklEREREpFXZXJFnHomIiIhIZ0weiYiIiEhnTB6JiIiISGdMHomIiIhIZ0weiYiIiEhnTB6JiIiISGdMHomIiIhIZ0weiYiIiEhnTB6JiIiISGdMHomIiIhIZ3LyKP3cNX+pkIiIiIhKlaaGQktJO888EhEREZHOmDwSERERkc6YPBIRERGRzpg8EhEREZHOmDwSERERkc60JI/ynddEREREVD+JyWD5hFC+41pKHqW68j0QERERUb0ipoPaTyM+Lnt85lGlbohVj4qKkJycrC4gIiIiojpPzP0ePSqSu55OnTyq08yS/1CQX4BrsbFSOxERERHVfWLul1+QL3fJZxqFhtymJnSYaBaUtBcoCxB77ZrcRURERER1nZj7KQuUUrs6J5Qzw9JkUd1iUr5AbGRnZSMkZAsSExPVZURERERUZ4k5n5j7ZWdnaySLInXH4yKF+LW12CkXyY3CwkIkJSVhVXCwuoCIiIiI6iwx5xNzPzEHlAg5oWbCqNltatekyRKxRSGVPO5N/M475WEK4uLi4OnpicaNG8s1RERERFQXiGccly//FIfCDiElJUUqU4hJoRBSQ8oay7W7uLqpoBJe4j/xjmvNdoGtbWO0bNkSUwID0b59e7i7u8Pe3l5dSURERES1inhX9bVr1xAbG4vNISHSGcfMjEx1ZZmEUZ00SiVSkdghtLsKyWNJsqhSZ49PJJHm5mawaWQDC0sLWFlawdTURKiRen2GZ1Y+k95D6j9JA1T/RGvXYhplbqtdPdn0BPXj/TQOaQ9d9xlhMevJmhXouaT15j2p/qmqE6/q9oyJClVirfg4noKCfBQoldI1joWFj9TJodSDnCiWtqu7pRKxXWxzdROSR/F4UJosCh3iS+5WvzTK1f+VNp9GqteXnoMaY5qG0Ht+9Z5X/RfSCKundr0ntU09WUyqgHRAoKdRHyarmQGT1H/Q2rOcxnhP1GfbqpkBk3zmOhKqpHo5IVS3q5vScpaWadaXbxfiyeRRHLvYFFqkV9n2J5pPoR5pNTNgks9almcyymLWg3k1hBEmaQijrCMiI5EOQPWBnotp2NoxykT1YpTtQO/VY8C81rBpSuOVXppN4X/NMrG7pFwcRqpUt0tNMVzd2grHLvHwJRzAxNcT7QLNMvGfulB6PY08pH70HLS+TFNfBs2rvowwSUMmWstml/4gxvhbkXfN9DRGWD2GTVLPoWvRZmCUbdaASeo9v3VpmlKV0IfQlPorbWqWqdulLrFdai1X7yYkj+KOUkoI5SRRs139etwsfxbyaaT66mbAJPWeX6MsZj2YV0MYYZKGTNQos1tf1KaVK+2h6z7jLKYRpmqUSVbzRA2YXLXPq0jPSRo0r8aY5rPIyaD6bKI8HbmspPuJunLtgAL/D/Pj2UF01RgRAAAAAElFTkSuQmCC;" vertex="1" parent="1">
          <mxGeometry x="1298" y="210" width="655" height="521" as="geometry" />
        </mxCell>
      </root>
    </mxGraphModel>
  </diagram>
</mxfile>
